<svg id="Layer_1" data-name="Layer 1" xmlns="http://www.w3.org/2000/svg" viewBox="0 0 543.7039 213.5066"><defs><style>.cls-1{fill:#1d1d1b;}.cls-2{fill:#c82640;}.cls-3{fill:#d31a36;}.cls-4{fill:#dd052b;}.cls-5{fill:#bc2d4a;}.cls-6{fill:#af3354;}.cls-7{fill:#a2385d;}.cls-8{fill:#943c67;}.cls-9{fill:#844070;}.cls-10{fill:#734379;}.cls-11{fill:#614582;}.cls-12{fill:#4c478a;}.cls-13{fill:#344892;}.cls-14{fill:#004899;}</style></defs><title>microsimulation-logo</title><path class="cls-1" d="M256.6245,90.6687v9.8a46.5055,46.5055,0,0,1-22.6289,5.3452q-10.4209,0-17.6836-4.187A30.832,30.832,0,0,1,204.8208,90.09a31.3216,31.3216,0,0,1-4.2319-15.9019,30.3673,30.3673,0,0,1,9.688-22.8506q9.6885-9.2644,23.8984-9.2646,9.7969,0,21.7813,5.1221v9.5771q-10.9131-6.2358-21.3359-6.2363-10.69,0-17.752,6.7485A22.4151,22.4151,0,0,0,209.81,74.1877a22.1954,22.1954,0,0,0,6.9473,16.8374q6.9492,6.5925,17.7734,6.5923Q245.8452,97.6174,256.6245,90.6687Z"/><path class="cls-1" d="M300.9341,85.3235H272.1148a13.374,13.374,0,0,0,3.9424,9.3545,13.0012,13.0012,0,0,0,9.376,3.4741,24.3957,24.3957,0,0,0,14.7881-4.9888v7.9287a27.0715,27.0715,0,0,1-7.416,3.5635,31.024,31.024,0,0,1-8.6191,1.0688q-6.772,0-10.958-2.8062a20.4057,20.4057,0,0,1-6.7031-7.55,23.0687,23.0687,0,0,1-2.5176-10.9795q0-9.3545,5.3008-15.2114A17.7028,17.7028,0,0,1,283.0718,63.32a16.2168,16.2168,0,0,1,13.0068,5.7012q4.8545,5.7026,4.8555,15.2783Zm-28.6416-4.855h20.624a11.324,11.324,0,0,0-2.8955-7.4834,9.3049,9.3049,0,0,0-6.9492-2.6279,9.9937,9.9937,0,0,0-7.1484,2.6279A13.0211,13.0211,0,0,0,272.2925,80.4685Z"/><path class="cls-1" d="M359.854,42.8743h8.33v62.2266H359.231V56.6824L340.0991,80.7356h-1.6475L319.0972,56.6824v48.4185H310.189V42.8743h8.4336L339.3,68.4309Z"/><path class="cls-1" d="M380.645,105.1008V42.7849h19.7324q8.9077,0,14.209,4.8105t5.3008,12.9175a17.285,17.285,0,0,1-2.7168,9.6216,15.5434,15.5434,0,0,1-7.4395,6.08q-4.7212,1.894-13.541,1.8931h-6.5918v26.9932Zm18.1729-54.3872h-9.22V70.179h9.7549q5.4331,0,8.374-2.561t2.9395-7.3276Q410.6665,50.7139,398.8179,50.7136Z"/><path class="cls-1" d="M439.7446,42.5178h6.2617l27.9014,62.583H464.79L456.4956,86.66H429.9478l-7.7754,18.4409h-9.1553Zm13.0889,36.2134L442.7944,56.1926l-9.3105,22.5386Z"/><path class="cls-1" d="M221.1853,134.68v3.3408a15.8453,15.8453,0,0,1-7.7129,1.8223,11.8807,11.8807,0,0,1-6.0288-1.4277,10.51,10.51,0,0,1-3.918-3.9326,10.6775,10.6775,0,0,1-1.4424-5.4209,10.352,10.352,0,0,1,3.3027-7.79,11.334,11.334,0,0,1,8.147-3.1582,19.1218,19.1218,0,0,1,7.4258,1.7461v3.2646a14.6186,14.6186,0,0,0-7.2734-2.126,8.4119,8.4119,0,0,0-6.0527,2.3008,8.121,8.121,0,0,0-.0371,11.5029,8.45,8.45,0,0,0,6.0586,2.2471A13.738,13.738,0,0,0,221.1853,134.68Z"/><path class="cls-1" d="M236.447,132.8582h-9.8252a4.5633,4.5633,0,0,0,1.3438,3.1895,4.4359,4.4359,0,0,0,3.1973,1.1846,8.3193,8.3193,0,0,0,5.041-1.7012v2.7031a9.2539,9.2539,0,0,1-2.5283,1.2148,10.5626,10.5626,0,0,1-2.9385.3643,6.5937,6.5937,0,0,1-3.7354-.957,6.9457,6.9457,0,0,1-2.2852-2.5732,7.8668,7.8668,0,0,1-.8584-3.7432,7.4335,7.4335,0,0,1,1.8076-5.1865,6.0328,6.0328,0,0,1,4.6914-1.9961,5.5287,5.5287,0,0,1,4.4346,1.9434,7.7658,7.7658,0,0,1,1.6553,5.209Zm-9.7646-1.6553h7.0313a3.8636,3.8636,0,0,0-.9873-2.5508,3.1692,3.1692,0,0,0-2.3691-.8955,3.4019,3.4019,0,0,0-2.4365.8955A4.4415,4.4415,0,0,0,226.6824,131.2029Z"/><path class="cls-1" d="M242.2029,125.6306v1.7764a5.5529,5.5529,0,0,1,4.2061-2.05,4.6325,4.6325,0,0,1,2.43.6758,4.4,4.4,0,0,1,1.708,1.8525,8.8564,8.8564,0,0,1,.585,3.7275V139.6h-2.7637v-7.957a5.4355,5.4355,0,0,0-.6533-3.06,2.496,2.496,0,0,0-2.1865-.9189,3.982,3.982,0,0,0-3.3252,1.959V139.6h-2.8242v-13.97Z"/><path class="cls-1" d="M253.0291,127.8474l5.1934-5.1025v2.8857h4.4189v2.49h-4.4189v6.8369q0,2.395,1.9893,2.3955a6.17,6.17,0,0,0,3.1436-.9873v2.582a6.9882,6.9882,0,0,1-3.4775.8955,4.6054,4.6054,0,0,1-3.1582-1.1084,3.1454,3.1454,0,0,1-.6533-.752,3.9933,3.9933,0,0,1-.4326-1.0928,12.2184,12.2184,0,0,1-.1748-2.5742v-6.1953h-2.43Z"/><path class="cls-1" d="M268.3054,125.6306v3.2041l.1523-.2432q2.0039-3.2344,4.0088-3.2344a4.9434,4.9434,0,0,1,3.2646,1.5791l-1.458,2.43a4.0952,4.0952,0,0,0-2.6729-1.3672,2.8643,2.8643,0,0,0-2.3154,1.2764,4.8132,4.8132,0,0,0-.9795,3.0215V139.6h-2.7793v-13.97Z"/><path class="cls-1" d="M288.9422,132.8582H279.117a4.5633,4.5633,0,0,0,1.3438,3.1895,4.4359,4.4359,0,0,0,3.1973,1.1846,8.3193,8.3193,0,0,0,5.041-1.7012v2.7031a9.2539,9.2539,0,0,1-2.5283,1.2148,10.5626,10.5626,0,0,1-2.9385.3643,6.5937,6.5937,0,0,1-3.7354-.957,6.9457,6.9457,0,0,1-2.2852-2.5732,7.8668,7.8668,0,0,1-.8584-3.7432,7.4335,7.4335,0,0,1,1.8076-5.1865,6.0328,6.0328,0,0,1,4.6914-1.9961,5.5287,5.5287,0,0,1,4.4346,1.9434,7.7658,7.7658,0,0,1,1.6553,5.209Zm-9.7646-1.6553h7.0313a3.8636,3.8636,0,0,0-.9873-2.5508,3.1692,3.1692,0,0,0-2.3691-.8955,3.4019,3.4019,0,0,0-2.4365.8955A4.4415,4.4415,0,0,0,279.1775,131.2029Z"/><path class="cls-1" d="M300.8924,125.6306v-.8359a7.5111,7.5111,0,0,1,1.4355-5.0264,4.4066,4.4066,0,0,1,3.4395-1.6543,9.3375,9.3375,0,0,1,2.05.2725V121.09a3.7533,3.7533,0,0,0-1.2754-.2432,2.6138,2.6138,0,0,0-2.2549.8662,5.4822,5.4822,0,0,0-.6309,3.082v.8359h2.4912v2.49H303.656V139.6h-2.7637V128.1208h-2.0039v-2.49Z"/><path class="cls-1" d="M314.7273,125.6a7.2882,7.2882,0,0,1,5.3,2.0566,6.9246,6.9246,0,0,1,2.11,5.1709,6.5713,6.5713,0,0,1-2.1416,5.0186,7.59,7.59,0,0,1-5.3906,1.9971,7.2865,7.2865,0,0,1-5.2539-2.0273,7.1593,7.1593,0,0,1,.0225-10.1738A7.436,7.436,0,0,1,314.7273,125.6Zm-.1523,2.49a4.3642,4.3642,0,0,0-3.2646,1.3057,4.5624,4.5624,0,0,0-1.2754,3.3252,4.3563,4.3563,0,0,0,1.3057,3.2725,4.6169,4.6169,0,0,0,3.3564,1.2686,4.5419,4.5419,0,0,0,3.333-1.2832,4.752,4.752,0,0,0-.0537-6.583A4.6937,4.6937,0,0,0,314.575,128.0906Z"/><path class="cls-1" d="M328.1658,125.6306v3.2041l.1523-.2432q2.0039-3.2344,4.0088-3.2344a4.9434,4.9434,0,0,1,3.2646,1.5791l-1.458,2.43a4.0952,4.0952,0,0,0-2.6729-1.3672,2.8643,2.8643,0,0,0-2.3154,1.2764,4.8132,4.8132,0,0,0-.9795,3.0215V139.6h-2.7793v-13.97Z"/><path class="cls-1" d="M363.41,118.3865h2.84V139.6H363.198V123.0945l-6.5225,8.2h-.5615l-6.5986-8.2V139.6h-3.0371V118.3865h2.876l7.0488,8.7129Z"/><path class="cls-1" d="M371.8689,119.7537a1.6221,1.6221,0,0,1,1.1689.4707,1.5422,1.5422,0,0,1,.4854,1.1543,1.5724,1.5724,0,0,1-.4854,1.1533,1.5939,1.5939,0,0,1-1.1689.4863,1.5311,1.5311,0,0,1-1.124-.4932,1.5837,1.5837,0,0,1-.4863-1.1465,1.5675,1.5675,0,0,1,.4863-1.1318A1.5348,1.5348,0,0,1,371.8689,119.7537Zm-1.3672,5.877h2.7637V139.6h-2.7637Z"/><path class="cls-1" d="M387.7371,136.3357v2.7334a11.6117,11.6117,0,0,1-4.0693.7744,6.7066,6.7066,0,0,1-7.1826-7.1523,7.4448,7.4448,0,0,1,1.8984-5.3145,6.534,6.534,0,0,1,4.9951-2.02,8.3572,8.3572,0,0,1,1.9365.2051,12.5873,12.5873,0,0,1,2.1182.7666v2.9463a7.3365,7.3365,0,0,0-3.8877-1.3369,3.9714,3.9714,0,0,0-3.0674,1.3135,4.7743,4.7743,0,0,0-1.1992,3.3486,4.521,4.521,0,0,0,1.2979,3.4014,4.81,4.81,0,0,0,3.501,1.2607A9.1226,9.1226,0,0,0,387.7371,136.3357Z"/><path class="cls-1" d="M393.8416,125.6306v3.2041l.1523-.2432q2.0039-3.2344,4.0088-3.2344a4.9434,4.9434,0,0,1,3.2646,1.5791l-1.458,2.43a4.0952,4.0952,0,0,0-2.6729-1.3672,2.8643,2.8643,0,0,0-2.3154,1.2764,4.8132,4.8132,0,0,0-.9795,3.0215V139.6h-2.7793v-13.97Z"/><path class="cls-1" d="M409.1023,125.6a7.2882,7.2882,0,0,1,5.3,2.0566,6.9246,6.9246,0,0,1,2.11,5.1709,6.5713,6.5713,0,0,1-2.1416,5.0186,7.59,7.59,0,0,1-5.3906,1.9971,7.2865,7.2865,0,0,1-5.2539-2.0273,7.1593,7.1593,0,0,1,.0225-10.1738A7.436,7.436,0,0,1,409.1023,125.6Zm-.1523,2.49a4.3642,4.3642,0,0,0-3.2646,1.3057,4.5624,4.5624,0,0,0-1.2754,3.3252,4.3563,4.3563,0,0,0,1.3057,3.2725,4.6169,4.6169,0,0,0,3.3564,1.2686,4.5419,4.5419,0,0,0,3.333-1.2832,4.752,4.752,0,0,0-.0537-6.583A4.6937,4.6937,0,0,0,408.95,128.0906Z"/><path class="cls-1" d="M418.8963,138.5984v-2.9766a12.5791,12.5791,0,0,0,2.3916,1.3291,5.5859,5.5859,0,0,0,2.0576.5088,2.57,2.57,0,0,0,1.4883-.4258,1.2214,1.2214,0,0,0,.623-1.0166,1.3743,1.3743,0,0,0-.4023-1.0107,9.395,9.395,0,0,0-1.7393-1.1611,12.3062,12.3062,0,0,1-3.5-2.5439,3.6469,3.6469,0,0,1-.8281-2.3,3.2294,3.2294,0,0,1,1.2529-2.627,4.9555,4.9555,0,0,1,3.2275-1.0176,8.8943,8.8943,0,0,1,4.2061,1.1533v2.7334a8.4221,8.4221,0,0,0-4.0244-1.4873,2.23,2.23,0,0,0-1.2979.3418,1.0517,1.0517,0,0,0-.4941.9043,1.3027,1.3027,0,0,0,.4473.9277,7.62,7.62,0,0,0,1.5713,1.0625l.9873.5615q3.4937,1.9746,3.4941,4.3721a3.4773,3.4773,0,0,1-1.3447,2.8164,5.2745,5.2745,0,0,1-3.4541,1.1006,8.4374,8.4374,0,0,1-2.2168-.2656A14.909,14.909,0,0,1,418.8963,138.5984Z"/><path class="cls-1" d="M432.9744,119.7537a1.6221,1.6221,0,0,1,1.1689.4707,1.5422,1.5422,0,0,1,.4854,1.1543,1.5724,1.5724,0,0,1-.4854,1.1533,1.5939,1.5939,0,0,1-1.1689.4863,1.5311,1.5311,0,0,1-1.124-.4932,1.5837,1.5837,0,0,1-.4863-1.1465,1.5675,1.5675,0,0,1,.4863-1.1318A1.5348,1.5348,0,0,1,432.9744,119.7537Zm-1.3672,5.877h2.7637V139.6h-2.7637Z"/><path class="cls-1" d="M449.8133,129.4568V139.6h-2.7783v-7.7744a6.1086,6.1086,0,0,0-.623-3.2422,2.4313,2.4313,0,0,0-2.1709-.9189,3.2448,3.2448,0,0,0-1.5869.3955,6.9528,6.9528,0,0,0-1.6475,1.3965V139.6h-2.7637v-13.97h2.7637v1.8369a6.01,6.01,0,0,1,4.13-2.11,4.5377,4.5377,0,0,1,4.1152,2.5205q2.2163-2.5518,4.6318-2.5508a4.2678,4.2678,0,0,1,3.3477,1.4873,6.7088,6.7088,0,0,1,1.3135,4.541V139.6H455.781V131.325a4.3055,4.3055,0,0,0-.7139-2.6729,2.4342,2.4342,0,0,0-2.05-.9268A4.2427,4.2427,0,0,0,449.8133,129.4568Z"/><path class="cls-1" d="M470.9363,139.6v-1.792a6.452,6.452,0,0,1-2.0117,1.5,5.243,5.243,0,0,1-2.2549.5352,4.6989,4.6989,0,0,1-2.4375-.66,4.2919,4.2919,0,0,1-1.6855-1.792,8.9716,8.9716,0,0,1-.5693-3.7588v-8.002h2.7637v7.9619a5.4875,5.4875,0,0,0,.63,3.0713,2.5481,2.5481,0,0,0,2.21.8721,4.0437,4.0437,0,0,0,3.3555-1.9287v-9.9766H473.7V139.6Z"/><path class="cls-1" d="M477.6482,118.3865h2.7637V139.6h-2.7637Z"/><path class="cls-1" d="M493.1834,131.2029V137.14q0,.7148.4854.7139a3.348,3.348,0,0,0,1.5645-.7441v1.6855a9.1152,9.1152,0,0,1-1.5107.8281,3.2856,3.2856,0,0,1-1.1924.22q-1.7769,0-2.0957-1.3975a6.0167,6.0167,0,0,1-3.751,1.3672,3.312,3.312,0,0,1-2.43-.9639,3.2745,3.2745,0,0,1-.9717-2.4229,3.4113,3.4113,0,0,1,.9492-2.3613,6.4277,6.4277,0,0,1,2.6953-1.6475l3.5381-1.2148v-.7441a2.228,2.228,0,0,0-2.5205-2.5205,6.0692,6.0692,0,0,0-4.4033,2.3389v-3.0225a5.7347,5.7347,0,0,1,4.6309-1.8975,5.3455,5.3455,0,0,1,3.63,1.1846,3.7209,3.7209,0,0,1,.8193,1.01,3.6262,3.6262,0,0,1,.4629,1.26A18.4945,18.4945,0,0,1,493.1834,131.2029Zm-2.7187,5.6338v-4.1455l-1.8525.7139a6.2765,6.2765,0,0,0-1.9971,1.1309,2.0472,2.0472,0,0,0-.03,2.832,1.9544,1.9544,0,0,0,1.4355.5469A3.4732,3.4732,0,0,0,490.4646,136.8367Z"/><path class="cls-1" d="M495.7185,127.8474l5.1934-5.1025v2.8857h4.4189v2.49h-4.4189v6.8369q0,2.395,1.9893,2.3955a6.17,6.17,0,0,0,3.1436-.9873v2.582a6.9882,6.9882,0,0,1-3.4775.8955,4.6054,4.6054,0,0,1-3.1582-1.1084,3.1454,3.1454,0,0,1-.6533-.752,3.9933,3.9933,0,0,1-.4326-1.0928,12.2184,12.2184,0,0,1-.1748-2.5742v-6.1953h-2.43Z"/><path class="cls-1" d="M509.4617,119.7537a1.6221,1.6221,0,0,1,1.1689.4707,1.5422,1.5422,0,0,1,.4854,1.1543,1.5724,1.5724,0,0,1-.4854,1.1533,1.5939,1.5939,0,0,1-1.1689.4863,1.5311,1.5311,0,0,1-1.124-.4932,1.5837,1.5837,0,0,1-.4863-1.1465,1.5675,1.5675,0,0,1,.4863-1.1318A1.5348,1.5348,0,0,1,509.4617,119.7537Zm-1.3672,5.877h2.7637V139.6h-2.7637Z"/><path class="cls-1" d="M521.534,125.6a7.2882,7.2882,0,0,1,5.3,2.0566,6.9246,6.9246,0,0,1,2.11,5.1709,6.5713,6.5713,0,0,1-2.1416,5.0186,7.59,7.59,0,0,1-5.3906,1.9971,7.2865,7.2865,0,0,1-5.2539-2.0273,7.1593,7.1593,0,0,1,.0225-10.1738A7.436,7.436,0,0,1,521.534,125.6Zm-.1523,2.49a4.3642,4.3642,0,0,0-3.2646,1.3057,4.5624,4.5624,0,0,0-1.2754,3.3252,4.3563,4.3563,0,0,0,1.3057,3.2725,4.6169,4.6169,0,0,0,3.3564,1.2686,4.5419,4.5419,0,0,0,3.333-1.2832,4.752,4.752,0,0,0-.0537-6.583A4.6937,4.6937,0,0,0,521.3816,128.0906Z"/><path class="cls-1" d="M534.7752,125.6306v1.7764a5.5529,5.5529,0,0,1,4.2061-2.05,4.6325,4.6325,0,0,1,2.43.6758,4.4,4.4,0,0,1,1.708,1.8525,8.8564,8.8564,0,0,1,.585,3.7275V139.6H540.94v-7.957a5.4355,5.4355,0,0,0-.6533-3.06,2.496,2.496,0,0,0-2.1865-.9189,3.982,3.982,0,0,0-3.3252,1.959V139.6H531.951v-13.97Z"/><path class="cls-1" d="M212.1541,163.2029V169.14q0,.7148.4863.7139a3.348,3.348,0,0,0,1.5645-.7441v1.6855a9.1556,9.1556,0,0,1-1.5117.8281,3.28,3.28,0,0,1-1.1914.22q-1.7783,0-2.0957-1.3975a6.0167,6.0167,0,0,1-3.751,1.3672,3.31,3.31,0,0,1-2.43-.9639,3.273,3.273,0,0,1-.9722-2.4229,3.4113,3.4113,0,0,1,.9492-2.3613,6.4277,6.4277,0,0,1,2.6953-1.6475l3.5376-1.2148v-.7441a2.2278,2.2278,0,0,0-2.52-2.5205,6.071,6.071,0,0,0-4.4038,2.3389v-3.0225a5.7364,5.7364,0,0,1,4.6313-1.8975,5.3477,5.3477,0,0,1,3.63,1.1846,3.7186,3.7186,0,0,1,.8184,1.01,3.5874,3.5874,0,0,1,.4629,1.26A18.4945,18.4945,0,0,1,212.1541,163.2029Zm-2.7187,5.6338v-4.1455l-1.8516.7139a6.2708,6.2708,0,0,0-1.9971,1.1309,2.0446,2.0446,0,0,0-.03,2.832,1.9521,1.9521,0,0,0,1.4346.5469A3.4715,3.4715,0,0,0,209.4353,168.8367Z"/><path class="cls-1" d="M219.4129,157.6306v1.7764a5.5529,5.5529,0,0,1,4.2061-2.05,4.6325,4.6325,0,0,1,2.43.6758,4.4,4.4,0,0,1,1.708,1.8525,8.8564,8.8564,0,0,1,.585,3.7275V171.6h-2.7637v-7.957a5.4355,5.4355,0,0,0-.6533-3.06,2.496,2.496,0,0,0-2.1865-.9189,3.982,3.982,0,0,0-3.3252,1.959V171.6h-2.8242v-13.97Z"/><path class="cls-1" d="M241.5222,150.3865h2.7793V171.6h-5.9072a6.463,6.463,0,0,1-4.9424-1.959,7.348,7.348,0,0,1-1.8457-5.2539,6.97,6.97,0,0,1,1.9365-5.0713,6.6,6.6,0,0,1,4.9424-1.9893,8.9924,8.9924,0,0,1,3.0371.5918Zm0,18.8457v-8.8535a5.7268,5.7268,0,0,0-2.6113-.6533,4.2175,4.2175,0,0,0-3.2881,1.3516,5.2315,5.2315,0,0,0-1.2217,3.6445,4.7717,4.7717,0,0,0,1.0625,3.3262,3.291,3.291,0,0,0,1.3516.9414,9.1112,9.1112,0,0,0,2.5664.2432Z"/><path class="cls-1" d="M256.9051,171.6V150.3562h6.7266a6.93,6.93,0,0,1,4.8438,1.6406A5.6516,5.6516,0,0,1,270.283,156.4a5.8931,5.8931,0,0,1-.9268,3.28,5.2936,5.2936,0,0,1-2.5361,2.0723,12.8893,12.8893,0,0,1-4.6162.6455h-2.2471V171.6Zm6.1953-18.541h-3.1436v6.6357h3.3252a4.2153,4.2153,0,0,0,2.8555-.873,3.1343,3.1343,0,0,0,1.002-2.498Q267.1394,153.06,263.1,153.0593Z"/><path class="cls-1" d="M278.4529,157.6a7.2882,7.2882,0,0,1,5.3,2.0566,6.9246,6.9246,0,0,1,2.11,5.1709,6.5713,6.5713,0,0,1-2.1416,5.0186,7.59,7.59,0,0,1-5.3906,1.9971,7.2865,7.2865,0,0,1-5.2539-2.0273,7.1593,7.1593,0,0,1,.0225-10.1738A7.436,7.436,0,0,1,278.4529,157.6Zm-.1523,2.49a4.3642,4.3642,0,0,0-3.2646,1.3057,4.5624,4.5624,0,0,0-1.2754,3.3252,4.3563,4.3563,0,0,0,1.3057,3.2725,4.6169,4.6169,0,0,0,3.3564,1.2686,4.5419,4.5419,0,0,0,3.333-1.2832,4.752,4.752,0,0,0-.0537-6.583A4.6937,4.6937,0,0,0,278.3006,160.0906Z"/><path class="cls-1" d="M288.991,150.3865h2.7637V171.6H288.991Z"/><path class="cls-1" d="M297.1765,151.7537a1.6221,1.6221,0,0,1,1.1689.4707,1.5422,1.5422,0,0,1,.4854,1.1543,1.5724,1.5724,0,0,1-.4854,1.1533,1.5939,1.5939,0,0,1-1.1689.4863,1.5311,1.5311,0,0,1-1.124-.4932,1.5837,1.5837,0,0,1-.4863-1.1465,1.5675,1.5675,0,0,1,.4863-1.1318A1.5348,1.5348,0,0,1,297.1765,151.7537Zm-1.3672,5.877h2.7637V171.6h-2.7637Z"/><path class="cls-1" d="M313.0437,168.3357v2.7334a11.6117,11.6117,0,0,1-4.0693.7744,6.7066,6.7066,0,0,1-7.1826-7.1523,7.4448,7.4448,0,0,1,1.8984-5.3145,6.534,6.534,0,0,1,4.9951-2.02,8.3572,8.3572,0,0,1,1.9365.2051,12.5873,12.5873,0,0,1,2.1182.7666v2.9463a7.3365,7.3365,0,0,0-3.8877-1.3369,3.9714,3.9714,0,0,0-3.0674,1.3135,4.7743,4.7743,0,0,0-1.1992,3.3486,4.521,4.521,0,0,0,1.2979,3.4014,4.81,4.81,0,0,0,3.501,1.2607A9.1226,9.1226,0,0,0,313.0437,168.3357Z"/><path class="cls-1" d="M324.7635,157.6306h3.1016l-9.8994,21.0918h-3.084L319.6238,168.6l-5.3955-10.97h3.1494l3.7725,7.8906Z"/><path class="cls-1" d="M342.489,150.2654h2.1348l9.5117,21.335h-3.1084L348.2,165.3142h-9.0508l-2.65,6.2861h-3.1211Zm4.4629,12.3457-3.4229-7.6836-3.1738,7.6836Z"/><path class="cls-1" d="M358.8426,157.6306v1.7764a5.5529,5.5529,0,0,1,4.2061-2.05,4.6325,4.6325,0,0,1,2.43.6758,4.4,4.4,0,0,1,1.708,1.8525,8.8564,8.8564,0,0,1,.585,3.7275V171.6h-2.7637v-7.957a5.4355,5.4355,0,0,0-.6533-3.06,2.496,2.496,0,0,0-2.1865-.9189,3.982,3.982,0,0,0-3.3252,1.959V171.6h-2.8242v-13.97Z"/><path class="cls-1" d="M380.406,163.2029V169.14q0,.7148.4854.7139a3.348,3.348,0,0,0,1.5645-.7441v1.6855a9.1152,9.1152,0,0,1-1.5107.8281,3.2856,3.2856,0,0,1-1.1924.22q-1.7769,0-2.0957-1.3975a6.0167,6.0167,0,0,1-3.751,1.3672,3.312,3.312,0,0,1-2.43-.9639,3.2745,3.2745,0,0,1-.9717-2.4229,3.4113,3.4113,0,0,1,.9492-2.3613,6.4277,6.4277,0,0,1,2.6953-1.6475l3.5381-1.2148v-.7441a2.228,2.228,0,0,0-2.5205-2.5205,6.0692,6.0692,0,0,0-4.4033,2.3389v-3.0225a5.7347,5.7347,0,0,1,4.6309-1.8975,5.3455,5.3455,0,0,1,3.63,1.1846,3.7208,3.7208,0,0,1,.8193,1.01,3.6262,3.6262,0,0,1,.4629,1.26A18.4945,18.4945,0,0,1,380.406,163.2029Zm-2.7187,5.6338v-4.1455l-1.8525.7139a6.2765,6.2765,0,0,0-1.9971,1.1309,2.0472,2.0472,0,0,0-.03,2.832,1.9544,1.9544,0,0,0,1.4355.5469A3.4732,3.4732,0,0,0,377.6873,168.8367Z"/><path class="cls-1" d="M384.9607,150.3865h2.7637V171.6h-2.7637Z"/><path class="cls-1" d="M399.991,157.6306h3.1016l-9.8994,21.0918h-3.084L394.8513,168.6l-5.3955-10.97h3.1494l3.7725,7.8906Z"/><path class="cls-1" d="M404.3523,170.5984v-2.9766a12.5791,12.5791,0,0,0,2.3916,1.3291,5.5859,5.5859,0,0,0,2.0576.5088,2.57,2.57,0,0,0,1.4883-.4258,1.2214,1.2214,0,0,0,.623-1.0166,1.3743,1.3743,0,0,0-.4023-1.0107,9.395,9.395,0,0,0-1.7393-1.1611,12.3062,12.3062,0,0,1-3.5-2.5439,3.6469,3.6469,0,0,1-.8281-2.3,3.2294,3.2294,0,0,1,1.2529-2.627,4.9555,4.9555,0,0,1,3.2275-1.0176A8.8943,8.8943,0,0,1,413.13,158.51v2.7334a8.4221,8.4221,0,0,0-4.0244-1.4873,2.23,2.23,0,0,0-1.2979.3418,1.0517,1.0517,0,0,0-.4941.9043,1.3027,1.3027,0,0,0,.4473.9277,7.62,7.62,0,0,0,1.5713,1.0625l.9873.5615q3.4937,1.9746,3.4941,4.3721a3.4773,3.4773,0,0,1-1.3447,2.8164,5.2745,5.2745,0,0,1-3.4541,1.1006,8.4374,8.4374,0,0,1-2.2168-.2656A14.909,14.909,0,0,1,404.3523,170.5984Z"/><path class="cls-1" d="M418.4295,151.7537a1.6221,1.6221,0,0,1,1.1689.4707,1.5422,1.5422,0,0,1,.4854,1.1543,1.5724,1.5724,0,0,1-.4854,1.1533,1.5939,1.5939,0,0,1-1.1689.4863,1.5311,1.5311,0,0,1-1.124-.4932,1.5837,1.5837,0,0,1-.4863-1.1465,1.5675,1.5675,0,0,1,.4863-1.1318A1.5348,1.5348,0,0,1,418.4295,151.7537Zm-1.3672,5.877h2.7637V171.6h-2.7637Z"/><path class="cls-1" d="M423.1365,170.5984v-2.9766a12.5791,12.5791,0,0,0,2.3916,1.3291,5.5859,5.5859,0,0,0,2.0576.5088,2.57,2.57,0,0,0,1.4883-.4258,1.2214,1.2214,0,0,0,.623-1.0166,1.3743,1.3743,0,0,0-.4023-1.0107,9.395,9.395,0,0,0-1.7393-1.1611,12.3062,12.3062,0,0,1-3.5-2.5439,3.6469,3.6469,0,0,1-.8281-2.3,3.2294,3.2294,0,0,1,1.2529-2.627,4.9555,4.9555,0,0,1,3.2275-1.0176,8.8943,8.8943,0,0,1,4.2061,1.1533v2.7334a8.4221,8.4221,0,0,0-4.0244-1.4873,2.23,2.23,0,0,0-1.2979.3418,1.0517,1.0517,0,0,0-.4941.9043,1.3027,1.3027,0,0,0,.4473.9277,7.62,7.62,0,0,0,1.5713,1.0625l.9873.5615q3.4937,1.9746,3.4941,4.3721a3.4773,3.4773,0,0,1-1.3447,2.8164,5.2745,5.2745,0,0,1-3.4541,1.1006,8.4374,8.4374,0,0,1-2.2168-.2656A14.909,14.909,0,0,1,423.1365,170.5984Z"/><circle class="cls-2" cx="106.7533" cy="6.2362" r="6.2362"/><path class="cls-2" d="M113.1759,14.8015H100.3307a6.4226,6.4226,0,0,0-6.4225,6.4226V33.6734a3.2111,3.2111,0,0,0,6.0431,1.5139h0l0-.0007a3.1956,3.1956,0,0,0,.3791-1.5131V46.0066a6.4226,6.4226,0,1,0,12.8452,0V33.6734a3.2113,3.2113,0,1,0,6.4226,0V21.2241A6.4226,6.4226,0,0,0,113.1759,14.8015Z"/><circle class="cls-3" cx="145.2195" cy="13.8876" r="6.2362" transform="translate(76.8159 142.7384) rotate(-67.5)"/><path class="cls-3" d="M136.008,19.3431l5.9337,2.4578,5.9337,2.4578a6.4226,6.4226,0,0,1,3.4758,8.3915l-4.7641,11.5016a3.2111,3.2111,0,0,1-6.1624-.914h0v-.0007a3.1956,3.1956,0,0,1,.2288-1.543l-4.72,11.3944a6.4226,6.4226,0,1,1-11.8674-4.9157l4.72-11.3944a3.2113,3.2113,0,1,1-5.9337-2.4578l4.7641-11.5016A6.4226,6.4226,0,0,1,136.008,19.3431Z"/><circle class="cls-4" cx="177.8296" cy="35.677" r="6.2362" transform="translate(26.8577 136.1941) rotate(-45)"/><path class="cls-4" d="M167.2316,37.1921l4.5415,4.5415,4.5415,4.5415a6.4226,6.4226,0,0,1,0,9.0829l-8.803,8.803a3.2111,3.2111,0,0,1-5.3436-3.2027v0l0-.0006a3.1956,3.1956,0,0,1,.8019-1.338L154.2492,68.34a6.4226,6.4226,0,1,1-9.0829-9.0829l8.7209-8.7209a3.2113,3.2113,0,0,1-4.5415-4.5415l8.803-8.803A6.4226,6.4226,0,0,1,167.2316,37.1921Z"/><circle class="cls-5" cx="68.2871" cy="13.8876" r="6.2362" transform="translate(-0.1165 27.1895) rotate(-22.5)"/><path class="cls-5" d="M77.4986,19.3431l-5.9337,2.4578-5.9337,2.4578A6.4226,6.4226,0,0,0,62.1553,32.65l4.7641,11.5016a3.2111,3.2111,0,0,0,6.1624-.914h0v-.0007a3.1956,3.1956,0,0,0-.2288-1.543l4.72,11.3944A6.4226,6.4226,0,1,0,89.44,48.1728l-4.72-11.3944a3.2113,3.2113,0,1,0,5.9337-2.4578L85.89,22.819A6.4226,6.4226,0,0,0,77.4986,19.3431Z"/><circle class="cls-6" cx="35.677" cy="35.677" r="6.2362" transform="translate(-14.7779 35.677) rotate(-45)"/><path class="cls-6" d="M46.275,37.1921l-4.5415,4.5415L37.1921,46.275a6.4226,6.4226,0,0,0,0,9.0829l8.803,8.803a3.2111,3.2111,0,0,0,5.3436-3.2027v0l0-.0006a3.1956,3.1956,0,0,0-.8019-1.338L59.2574,68.34A6.4226,6.4226,0,1,0,68.34,59.2574l-8.7209-8.7209a3.2113,3.2113,0,0,0,4.5415-4.5415l-8.803-8.803A6.4226,6.4226,0,0,0,46.275,37.1921Z"/><circle class="cls-7" cx="13.8876" cy="68.2871" r="6.2362" transform="translate(-54.516 54.9852) rotate(-67.5)"/><path class="cls-7" d="M24.2588,65.6312l-2.4578,5.9337-2.4578,5.9337A6.4226,6.4226,0,0,0,22.819,85.89l11.5016,4.7641A3.2111,3.2111,0,0,0,38.0319,85.65v0l-.0006,0a3.1956,3.1956,0,0,0-1.2529-.9293l11.3944,4.72a6.4226,6.4226,0,1,0,4.9157-11.8674l-11.3944-4.72a3.2113,3.2113,0,1,0,2.4578-5.9337L32.65,62.1553A6.4226,6.4226,0,0,0,24.2588,65.6312Z"/><circle class="cls-8" cx="6.2362" cy="106.7533" r="6.2362"/><path class="cls-8" d="M14.8015,100.3307v12.8452a6.4226,6.4226,0,0,0,6.4226,6.4225H33.6734a3.2111,3.2111,0,0,0,1.5139-6.0431v0l-.0007,0a3.1956,3.1956,0,0,0-1.5131-.3791H46.0066a6.4226,6.4226,0,1,0,0-12.8452H33.6734a3.2113,3.2113,0,1,0,0-6.4226H21.2241A6.4226,6.4226,0,0,0,14.8015,100.3307Z"/><circle class="cls-9" cx="13.8876" cy="145.2195" r="6.2362" transform="translate(-54.516 16.3687) rotate(-22.5)"/><path class="cls-9" d="M19.3431,136.008l2.4578,5.9337,2.4578,5.9337a6.4226,6.4226,0,0,0,8.3915,3.4758l11.5016-4.7641a3.2111,3.2111,0,0,0-.914-6.1624h-.0008a3.1956,3.1956,0,0,0-1.543.2288l11.3944-4.72a6.4226,6.4226,0,1,0-4.9157-11.8674l-11.3944,4.72a3.2113,3.2113,0,1,0-2.4578-5.9337L22.819,127.6165A6.4226,6.4226,0,0,0,19.3431,136.008Z"/><circle class="cls-10" cx="35.677" cy="177.8296" r="6.2362" transform="translate(-115.295 77.3125) rotate(-45)"/><path class="cls-10" d="M37.1921,167.2316l4.5415,4.5415,4.5415,4.5415a6.4226,6.4226,0,0,0,9.0829,0l8.803-8.803a3.2111,3.2111,0,0,0-3.2027-5.3436h0l-.0006,0a3.1956,3.1956,0,0,0-1.338.8019l8.7209-8.7209a6.4226,6.4226,0,1,0-9.0829-9.0829l-8.7209,8.7209a3.2113,3.2113,0,0,0-4.5415-4.5415l-8.803,8.803A6.4226,6.4226,0,0,0,37.1921,167.2316Z"/><circle class="cls-11" cx="68.2871" cy="199.619" r="6.2362" transform="translate(-142.2692 186.3171) rotate(-67.5)"/><path class="cls-11" d="M65.6312,189.2479l5.9337,2.4578,5.9337,2.4578a6.4226,6.4226,0,0,0,8.3915-3.4759l4.7641-11.5016a3.2111,3.2111,0,0,0-5.0038-3.7112h0l0,.0006a3.1956,3.1956,0,0,0-.9293,1.2529l4.72-11.3944a6.4226,6.4226,0,1,0-11.8674-4.9157l-4.72,11.3944a3.2113,3.2113,0,1,0-5.9337-2.4578l-4.7641,11.5016A6.4226,6.4226,0,0,0,65.6312,189.2479Z"/><circle class="cls-12" cx="106.7533" cy="207.2704" r="6.2362"/><path class="cls-12" d="M100.3307,198.7051h12.8452a6.4226,6.4226,0,0,0,6.4225-6.4226V179.8332a3.2111,3.2111,0,0,0-6.0431-1.5139h0l0,.0007a3.1956,3.1956,0,0,0-.3791,1.5131V167.5a6.4226,6.4226,0,1,0-12.8452,0v12.3332a3.2113,3.2113,0,1,0-6.4226,0v12.4493A6.4226,6.4226,0,0,0,100.3307,198.7051Z"/><circle class="cls-13" cx="145.2195" cy="199.619" r="6.2362" transform="translate(-65.3367 70.7682) rotate(-22.5)"/><path class="cls-13" d="M136.008,194.1635l5.9337-2.4578,5.9337-2.4578a6.4226,6.4226,0,0,0,3.4758-8.3915l-4.7641-11.5016a3.2111,3.2111,0,0,0-6.1624.914h0v.0007a3.1956,3.1956,0,0,0,.2288,1.543l-4.72-11.3944a6.4226,6.4226,0,1,0-11.8674,4.9157l4.72,11.3944a3.2113,3.2113,0,0,0-5.9337,2.4578l4.7641,11.5016A6.4226,6.4226,0,0,0,136.008,194.1635Z"/><circle class="cls-14" cx="177.8296" cy="177.8296" r="6.2362" transform="translate(-73.6595 177.8296) rotate(-45)"/><path class="cls-14" d="M167.2316,176.3145l4.5415-4.5415,4.5415-4.5415a6.4226,6.4226,0,0,0,0-9.0829l-8.803-8.803a3.2111,3.2111,0,0,0-5.3436,3.2027v0l0,.0006a3.1956,3.1956,0,0,0,.8019,1.338l-8.7209-8.7209a6.4226,6.4226,0,1,0-9.0829,9.0829l8.7209,8.7209a3.2113,3.2113,0,0,0-4.5415,4.5415l8.803,8.803A6.4226,6.4226,0,0,0,167.2316,176.3145Z"/></svg>