<?xml version="1.0" encoding="utf-8"?>
<!-- Generator: Adobe Illustrator 18.0.0, SVG Export Plug-In . SVG Version: 6.00 Build 0)  -->
<!DOCTYPE svg PUBLIC "-//W3C//DTD SVG 1.1//EN" "http://www.w3.org/Graphics/SVG/1.1/DTD/svg11.dtd">
<svg version="1.1" id="Layer_1" xmlns="http://www.w3.org/2000/svg" xmlns:xlink="http://www.w3.org/1999/xlink" x="0px" y="0px"
	 viewBox="26 276.2 557.9 239.6" enable-background="new 26 276.2 557.9 239.6" xml:space="preserve">
<g id="Background">
</g>
<g id="Layer_1_1_">
	<g>
		
			<linearGradient id="SVGID_1_" gradientUnits="userSpaceOnUse" x1="0.1009" y1="-4.2569" x2="105.3871" y2="-4.2569" gradientTransform="matrix(2.7958 0 0 2.7958 25.9919 415.7092)">
			<stop  offset="0.6548" style="stop-color:#1B2962"/>
			<stop  offset="1" style="stop-color:#264B9B"/>
		</linearGradient>
		<path fill="url(#SVGID_1_)" d="M26.3,395.9l133.1,3.1l-58.1,52.9l75.4-23.2l-42,86.9l69.9-67.1l8.1,42.2l25.7-35.5l26,40.8
			l7.2-48.1c-10.1,4.5-21.8,7-33.6,7c-45.8,0-83.1-36.3-83.1-81.4c0-3.1,0-6.1,0.3-8.9L26.3,395.9z M271.7,447.9
			c28.8-12.6,48.9-41.1,48.9-74.4c0-45-37.2-81.4-83.1-81.4c-42.2,0-77.4,31.6-82.2,72.4l36.3-5.8l-24.1-25.1l42.5,15.3l-18.4-39.1
			l38,46.9l-8.7-61l16.7,29.9l16.2-30.2l-8.4,61.2l38.3-46.9l-20.1,40.5l43.9-17l-25.1,26.2l36.3,5l-65.9,10.3l61.2,23l-36.3-1.4
			l20.7,31.6l-19.3,2L271.7,447.9z"/>
		
			<linearGradient id="SVGID_2_" gradientUnits="userSpaceOnUse" x1="0" y1="-4.2569" x2="105.589" y2="-4.2569" gradientTransform="matrix(2.7958 0 0 2.7958 25.9919 415.7092)">
			<stop  offset="0.6548" style="stop-color:#1B2962"/>
			<stop  offset="1" style="stop-color:#264B9B"/>
		</linearGradient>
		<path fill="url(#SVGID_2_)" d="M134.5,515.8L134.5,515.8c-0.3,0-0.3-0.3-0.3-0.3l41.7-86.4L101,452.4h-0.3v-0.3l58.1-52.9
			l-132.5-3.1c0,0-0.3,0-0.3-0.3c0,0,0-0.3,0.3-0.3l129.2-31.3c2.3-19.8,11.8-38,27.1-51.5s34.9-21,55.6-21
			c22.1,0,43.1,8.4,58.7,24.1c15.6,15.3,24.4,35.7,24.4,57.6c0,15.9-4.8,31.6-13.7,45c-8.7,12.9-21,23.2-35.5,29.6l-7.2,48.1
			c0,0,0,0.3-0.3,0.3h-0.3l-25.7-40.5l-25.4,34.9h-0.3c0,0-0.3,0-0.3-0.3l-8.1-41.7L134.5,515.8
			C134.7,515.8,134.7,515.8,134.5,515.8z M176.7,428.6L176.7,428.6l-41.4,85.8l69-66.2c-9.2-4-17.6-9.8-24.9-16.7
			C178.4,430.5,177.5,429.4,176.7,428.6z M238.8,455.1l25.7,40.3l7.2-46.9C260.8,452.6,249.7,455.1,238.8,455.1z M204.9,448.4
			l8.1,41.4l25.1-34.7C226.5,455.1,215.3,452.9,204.9,448.4z M155.7,364.5c-0.3,2.5-0.3,4.8-0.3,7.2c0,0.6,0,1.1,0,1.7
			c0,21.8,8.7,42,24.4,57.3c15.6,15.3,36.3,23.8,58.4,23.8c11.2,0,22.7-2.5,33.6-7l7.2-17.3c0,0,0-0.3,0.3-0.3l19-2l-20.7-31.3v-0.3
			c0,0,0,0,0.3,0l34.7,1.4l-59.9-22.4l-0.3-0.3c0,0,0-0.3,0.3-0.3l64.3-10.3l-34.7-4.8c0,0-0.3,0-0.3-0.3v-0.3l24.6-25.4l-42.8,16.7
			h-0.3v-0.3l19.3-38.6l-36.6,45.2H246l-0.3-0.3l8.1-59.8l-15.6,28.8c0,0,0,0-0.3,0h-0.3l-16-28.4l8.4,59.5l0,0c0,0.3,0,0.3-0.3,0.3
			h-0.3l-36.6-45.2l17.6,36.9c0,0,0,0,0,0.3c0,0.3,0,0.3-0.3,0.3l0,0l-41.4-15.1l23.2,24.6v0.3c0,0,0,0.3-0.3,0.3L155.7,364.5z
			 M159.4,399.5l-57.3,51.7l74.4-23c0,0,0,0,0.3,0C168.9,419.9,163,410.2,159.4,399.5z M279.3,430.5l-7,16.7
			c10.1-4.5,19-10.9,26.2-18.7l0,0L279.3,430.5z M278.5,397l20.4,31.3c0,0,0,0,0,0.3c3.1-3.1,5.6-6.4,8.1-10.1
			c8.9-13.2,13.7-28.8,13.7-44.8c0-21.8-8.7-42-24.4-57.3c-15.6-15.3-36.3-23.8-58.4-23.8c-20.4,0-40,7.2-55.3,21
			c-15.1,13.2-24.6,31.3-26.8,50.9l35.5-5.6l-23.8-24.9v-0.3c0,0,0.3-0.3,0.3,0l42,15.1l-18.2-38.3v-0.3h0.3l37.4,46.4l-8.4-61
			c0,0,0-0.3,0.3-0.3h0.3l16.7,29.4l16.2-29.6c0,0,0.3-0.3,0.3,0l0.3,0.3l-8.4,60.4l37.2-46.1h0.3c0,0,0.3,0.3,0,0.3l-19.8,40
			l43.4-16.7h0.3v0.3l-24.6,26l35.7,5c0,0,0.3,0,0.3,0.3c0,0,0,0.3-0.3,0.3l-64.8,10.3l60.4,22.7l0.3,0.3c0,0,0,0.3-0.3,0.3
			L278.5,397z M28.2,395.6l130.9,3.1c-2.5-8.1-4-16.5-4-25.1c0-0.6,0-1.1,0-1.7c0-2.3,0-4.8,0.3-7L28.2,395.6z"/>
	</g>
	<g opacity="0.85">
		<g>
			<polygon fill="#FFFF00" points="237.7,276.2 241.2,288 253.6,288 243.8,295.2 247.4,307 237.7,299.7 227.6,307 231.2,295.2 
				221.4,288 233.7,288 			"/>
			<path fill="#996600" d="M247.4,307L247.4,307l-9.8-7l-10.1,7c0,0,0,0-0.3,0c0,0,0,0,0-0.3l3.7-11.5l-9.8-7.2c0,0,0,0,0-0.3l0,0
				h12l4.2-11.5h0.3l4,11.5h12l0,0c0,0,0,0,0,0.3l-9.5,7.2L247.4,307C247.7,307,247.4,307,247.4,307L247.4,307z M237.7,299.7
				L237.7,299.7l9.8,7l-3.7-11.2c0,0,0,0,0-0.3l9.5-7h-11.8l0,0l-3.7-11.2l-3.7,11.2l0,0h-11.8l9.5,7c0,0,0,0,0,0.3l-3.7,11.2
				L237.7,299.7C237.4,299.7,237.7,299.7,237.7,299.7z"/>
		</g>
	</g>
	<g opacity="0.85">
		<g>
			<polygon fill="#FFFF00" points="237.1,438.7 240.9,450.1 253,450.1 243.2,457.4 246.9,469.1 237.1,462.1 227,469.1 230.6,457.4 
				220.8,450.1 233.1,450.1 			"/>
			<path fill="#996600" d="M246.9,469.1L246.9,469.1l-9.8-7l-9.8,7c0,0,0,0-0.3,0c0,0,0,0,0-0.3l3.7-11.5l-9.8-7.2c0,0,0,0,0-0.3
				l0,0h12l4-11.5h0.3l4,11.5h12l0,0c0,0,0,0,0,0.3l-9.8,7.2L246.9,469.1C247.2,469.1,247.2,469.1,246.9,469.1L246.9,469.1z
				 M237.1,461.8L237.1,461.8l9.8,7l-3.7-11.2c0,0,0,0,0-0.3l9.5-7h-11.8l0,0l-3.7-11.2l-3.7,11.2l0,0h-11.8l9.5,7c0,0,0,0,0,0.3
				l-3.7,11.2L237.1,461.8L237.1,461.8z"/>
		</g>
	</g>
	<g opacity="0.85">
		<g>
			<polygon fill="#FFFF00" points="193.4,424.4 197.4,435.8 209.7,435.8 199.9,443.1 203.5,454.8 193.4,447.6 183.7,454.8 
				187.3,443.1 177.5,435.8 189.9,435.8 			"/>
			<path fill="#996600" d="M203.5,454.8L203.5,454.8l-9.8-7l-9.8,7c0,0,0,0-0.3,0c0,0,0,0,0-0.3l3.7-11.5l-9.8-7.2c0,0,0,0,0-0.3
				l0,0h12l4-11.5h0.3l4,11.5h12l0,0c0,0,0,0,0,0.3l-9.8,7.2L203.5,454.8L203.5,454.8L203.5,454.8z M193.4,447.6
				C193.4,447.6,193.7,447.6,193.4,447.6l9.8,7l-3.7-11.2c0,0,0,0,0-0.3l9.5-7h-11.8l0,0l-3.7-11.2l-3.7,11.2l0,0h-11.6l9.5,7
				c0,0,0,0,0,0.3l-3.7,11.2L193.4,447.6L193.4,447.6z"/>
		</g>
	</g>
	<g opacity="0.85">
		<g>
			<polygon fill="#FFFF00" points="164.1,393 168,404.5 180.4,404.8 170.5,412 174.2,423.5 164.1,416.6 154.3,423.5 158,412 
				148.2,404.8 160.2,404.5 			"/>
			<path fill="#996600" d="M174.2,423.8L174.2,423.8l-9.8-7l-9.8,7c0,0,0,0-0.3,0c0,0,0,0,0-0.3L158,412l-9.8-7.2c0,0,0,0,0-0.3l0,0
				h12l4-11.5h0.3l4,11.5h12l0,0c0,0,0,0,0,0.3l-9.8,7.2L174.2,423.8C174.2,423.5,174.2,423.5,174.2,423.8L174.2,423.8z
				 M148.5,404.8l9.5,7c0,0,0,0,0,0.3l-3.7,11.2l9.5-6.7c0,0,0,0,0.3,0l9.5,6.7l-3.7-11.2c0,0,0,0,0-0.3l9.8-7H168l0,0l-3.7-11.2
				l-3.7,11.2l0,0H148.5z"/>
		</g>
	</g>
	<g opacity="0.85">
		<g>
			<polygon fill="#FFFF00" points="154.6,356.4 158.5,367.9 170.8,367.9 161,375.2 164.7,386.9 154.6,379.7 144.8,386.9 
				148.5,375.2 138.7,367.9 150.9,367.9 			"/>
			<path fill="#996600" d="M164.7,386.9L164.7,386.9l-10.1-7l-9.8,7c0,0,0,0-0.3,0c0,0,0,0,0-0.3l3.7-11.5l-9.8-7.2c0,0,0,0,0-0.3
				l0,0h12l4-11.5h0.3l4,11.5h12l0,0c0,0,0,0,0,0.3l-9.8,7.2L164.7,386.9L164.7,386.9L164.7,386.9z M154.6,379.7
				C154.9,379.7,154.9,379.7,154.6,379.7l9.8,7l-3.7-11.2c0,0,0,0,0-0.3l9.5-7h-11.8l0,0l-3.7-11.2l-3.7,11.2l0,0h-11.8l9.5,7
				c0,0,0,0,0,0.3l-3.7,11.2L154.6,379.7L154.6,379.7z"/>
		</g>
	</g>
	<g opacity="0.85">
		<g>
			<polygon fill="#FFFF00" points="166.1,315.3 170,327.1 182,327.1 172.2,334.3 175.9,345.8 166.1,338.9 156,345.8 159.7,334.3 
				149.9,327.1 162.1,327.1 			"/>
			<path fill="#996600" d="M175.9,346.1L175.9,346.1l-9.8-7l-10.1,7c0,0,0,0-0.3,0c0,0,0,0,0-0.3l3.7-11.5l-9.8-7.2c0,0,0,0,0-0.3
				l0,0h12l4.2-11.5h0.3l4,11.5h12l0,0c0,0,0,0,0,0.3l-9.8,7.2L175.9,346.1C176.1,345.8,176.1,346.1,175.9,346.1L175.9,346.1z
				 M166.1,338.9L166.1,338.9l9.8,7l-3.7-11.2c0,0,0,0,0-0.3l9.5-7h-11.8l0,0l-3.7-11.2l-3.7,11.2l0,0h-11.8l9.5,7c0,0,0,0,0,0.3
				l-3.7,11.2L166.1,338.9C165.8,338.9,166.1,338.9,166.1,338.9z"/>
		</g>
	</g>
	<g opacity="0.85">
		<g>
			<polygon fill="#FFFF00" points="196.8,285.7 200.7,297.5 213,297.5 203.2,304.7 206.9,316.2 196.8,309.2 187,316.2 190.6,304.7 
				180.8,297.5 192.9,297.5 			"/>
			<path fill="#996600" d="M206.9,316.5L206.9,316.5l-9.8-7l-9.8,7c0,0,0,0-0.3,0c0,0,0,0,0-0.3l3.7-11.5l-9.8-7.2c0,0,0,0,0-0.3
				l0,0h12l4-11.5h0.3l4,11.5h12l0,0c0,0,0,0,0,0.3l-9.8,7.2L206.9,316.5C206.9,316.2,206.9,316.5,206.9,316.5L206.9,316.5z
				 M196.8,309.2L196.8,309.2l9.8,7l-3.7-11.2c0,0,0,0,0-0.3l9.5-7h-11.8l0,0l-3.7-11.2l-3.7,11.2l0,0h-11.8l9.5,7c0,0,0,0,0,0.3
				l-3.7,11.2L196.8,309.2L196.8,309.2z"/>
		</g>
	</g>
	<g opacity="0.85">
		<g>
			<polygon fill="#FFFF00" points="280.4,424.6 284.3,436.4 296.6,436.4 286.9,443.6 290.4,455.4 280.4,448.2 270.6,455.4 
				274.3,443.6 264.5,436.4 276.5,436.4 			"/>
			<path fill="#996600" d="M290.4,455.4C290.4,455.4,290.1,455.4,290.4,455.4l-10.1-7l-9.8,7c0,0,0,0-0.3,0c0,0,0,0,0-0.3l3.7-11.5
				l-9.8-7.2c0,0,0,0,0-0.3l0,0h12l4-11.5l0,0l0,0l0,0l4,11.5h12l0,0c0,0,0,0,0,0.3l-9.8,7.2L290.4,455.4L290.4,455.4L290.4,455.4z
				 M264.7,436.7l9.5,7c0,0,0,0,0,0.3l-3.7,11.2l9.5-6.7c0,0,0,0,0.3,0l9.5,6.7l-3.7-11.2c0,0,0,0,0-0.3l9.5-7h-11.8l0,0l-3.7-11.2
				l-3.7,11.2l0,0H264.7z"/>
		</g>
	</g>
	<g opacity="0.85">
		<g>
			<polygon fill="#FFFF00" points="277.9,286.3 281.8,297.7 293.8,298 284,305.3 287.7,316.7 277.9,309.8 268.1,316.7 271.7,305.3 
				261.9,298 274,297.7 			"/>
			<path fill="#996600" d="M287.7,317L287.7,317l-9.8-7.2l-9.8,7c0,0,0,0-0.3,0c0,0,0,0,0-0.3l3.7-11.5l-9.8-7.2c0,0,0,0,0-0.3l0,0
				h12l4-11.5h0.3l4,11.5h12l0,0c0,0,0,0,0,0.3l-9.8,7.2L287.7,317C288,316.7,288,316.7,287.7,317C288,317,288,317,287.7,317z
				 M277.9,309.5L277.9,309.5l9.8,7l-3.7-11.2c0,0,0,0,0-0.3l9.5-7h-11.8l0,0l-3.7-11.2l-3.7,11.2l0,0h-11.8l9.5,7c0,0,0,0,0,0.3
				l-3.7,11.2L277.9,309.5L277.9,309.5z"/>
		</g>
	</g>
	<g opacity="0.85">
		<g>
			<polygon fill="#FFFF00" points="308.1,315.9 312,327.4 324,327.7 314.2,334.9 317.9,346.4 308.1,339.4 298.1,346.4 301.6,334.9 
				291.8,327.7 304.2,327.4 			"/>
			<path fill="#996600" d="M317.9,346.7L317.9,346.7l-9.8-7l-9.8,7c0,0,0,0-0.3,0c0,0,0,0,0-0.3l3.6-11.5l-9.8-7.2c0,0,0,0,0-0.3
				l0,0h12l4-11.5h0.3l3.9,11.5h12l0,0c0,0,0,0,0,0.3l-9.8,7.2L317.9,346.7C318.2,346.4,318.2,346.4,317.9,346.7L317.9,346.7z
				 M292.4,327.7l9.5,7c0,0,0,0,0,0.3l-3.7,11.2l9.5-6.7c0,0,0,0,0.3,0l9.5,6.7l-3.7-11.2c0,0,0,0,0-0.3l9.5-7h-11.8l0,0l-3.7-11.2
				l-3.7,11.2l0,0H292.4z"/>
		</g>
	</g>
	<g opacity="0.85">
		<g>
			<polygon fill="#FFFF00" points="320.1,356.7 324,368.5 336.1,368.5 326.3,375.7 329.9,387.2 320.1,380.2 310,387.2 313.7,375.7 
				303.9,368.5 316.2,368.5 			"/>
			<path fill="#996600" d="M310,387.5L310,387.5L310,387.5l3.7-11.8l-9.8-7.2c0,0,0,0,0-0.3l0,0h12l4-11.5l0,0l0,0l0,0l4,11.5h12
				l0,0c0,0,0,0,0,0.3l-9.8,7.2l3.7,11.5c0,0,0,0,0,0.3c0,0,0,0-0.3,0l-9.8-7L310,387.5C310.3,387.5,310,387.5,310,387.5z
				 M304.4,368.5l9.5,7c0,0,0,0,0,0.3l-3.7,11.2l9.5-6.7c0,0,0,0,0.3,0l9.5,6.7l-3.7-11.2c0,0,0,0,0-0.3l9.5-7h-11.8l0,0l-3.7-11.2
				l-3.7,11.2l0,0H304.4z"/>
		</g>
	</g>
	<g opacity="0.85">
		<g>
			<polygon fill="#FFFF00" points="310.3,393.9 314.2,405.4 326.3,405.6 316.5,412.6 320.3,424.4 310.3,417.4 300.5,424.4 
				304.2,412.6 294.4,405.6 306.4,405.4 			"/>
			<path fill="#996600" d="M320.3,424.4C320.1,424.4,320.1,424.4,320.3,424.4l-9.8-7l-10.1,7c0,0,0,0-0.3,0c0,0,0,0,0-0.3l3.7-11.5
				l-9.8-7.2c0,0,0,0,0-0.3l0,0h12l4-11.5h0.3l4,11.5h12l0,0c0,0,0,0,0,0.3l-9.8,7.2L320.3,424.4L320.3,424.4L320.3,424.4z
				 M310.3,417.1L310.3,417.1l9.8,7l-3.7-11.2c0,0,0,0,0-0.3l9.5-7h-11.8l0,0l-3.7-11.2l-3.7,11.2l0,0H295l9.5,7c0,0,0,0,0,0.3
				l-3.7,11.2L310.3,417.1L310.3,417.1z"/>
		</g>
	</g>
	<g enable-background="new    ">
		<path d="M367.6,428.5v8.7c0,0.5-0.1,0.8-0.2,0.9c-0.1,0.1-0.5,0.2-0.9,0.2H344c-0.5,0-0.8-0.1-0.9-0.2s-0.2-0.5-0.2-0.9v-3
			c0-0.5,0.1-0.8,0.2-0.9c0.2-0.2,0.5-0.2,0.9-0.2h2.8v-27.6H344c-0.5,0-0.8-0.1-0.9-0.2s-0.2-0.5-0.2-0.9v-3c0-0.5,0.1-0.8,0.2-0.9
			c0.1-0.1,0.5-0.2,0.9-0.2h22.4c0.5,0,0.8,0.1,0.9,0.2c0.2,0.1,0.2,0.4,0.2,0.8v8.5c0,0.5-0.1,0.8-0.3,0.9
			c-0.2,0.2-0.5,0.2-0.9,0.2h-3.7c-0.5,0-0.8-0.1-0.9-0.2c-0.2-0.2-0.2-0.5-0.2-0.9v-3.4h-7.1v9.2h9.5c0.6,0,0.8,0.1,0.9,0.2
			c0.1,0.2,0.2,0.5,0.2,0.9v3.7c0,0.5-0.1,0.8-0.2,0.9c-0.2,0.2-0.5,0.2-0.9,0.2h-9.5v11h7.1v-4c0-0.5,0.1-0.8,0.2-0.9
			c0.1-0.2,0.5-0.2,0.9-0.2h3.7c0.6,0,0.8,0.1,0.9,0.2S367.6,427.9,367.6,428.5z"/>
		<path d="M403.3,405.5v19.9c0,4.5-1,8-3,10.3c-2,2.4-5.5,3.6-10.4,3.6c-5,0-8.5-1.2-10.4-3.6c-2-2.4-3-5.8-3-10.3v-19.9h-2.8
			c-0.5,0-0.8-0.1-0.9-0.2c-0.1-0.1-0.2-0.5-0.2-0.9v-3c0-0.5,0.1-0.8,0.2-0.9c0.1-0.1,0.5-0.2,0.9-0.2h13.2c0.5,0,0.8,0.1,0.9,0.2
			c0.2,0.2,0.2,0.5,0.2,0.9v3c0,0.5-0.1,0.8-0.2,0.9c-0.2,0.2-0.5,0.2-0.9,0.2h-2.8v19.9c0,1.2,0,2.3,0.1,3s0.3,1.6,0.7,2.4
			s0.9,1.5,1.8,1.9s2,0.7,3.3,0.7s2.4-0.2,3.3-0.7c0.8-0.4,1.5-1,1.8-1.9c0.4-0.8,0.6-1.6,0.7-2.4c0.1-0.8,0.1-1.8,0.1-3v-19.9h-2.8
			c-0.5,0-0.8-0.1-0.9-0.2c-0.2-0.2-0.2-0.5-0.2-0.9v-3c0-0.5,0.1-0.8,0.2-0.9c0.2-0.2,0.5-0.2,0.9-0.2H406c0.5,0,0.8,0.1,0.9,0.2
			c0.1,0.1,0.2,0.5,0.2,0.9v3c0,0.5-0.1,0.8-0.2,0.9s-0.5,0.2-0.9,0.2H403.3z"/>
		<path d="M442.6,434.2v3c0,0.5-0.1,0.8-0.2,0.9c-0.1,0.1-0.5,0.2-0.9,0.2h-7.1c-0.5,0-0.8,0-0.8-0.1c-0.1-0.1-0.3-0.3-0.5-0.7
			l-7.5-15.1h-2.7V433h2.6c0.5,0,0.8,0.1,0.9,0.2c0.2,0.2,0.2,0.5,0.2,0.9v3c0,0.5-0.1,0.8-0.2,0.9c-0.2,0.2-0.5,0.2-0.9,0.2h-13
			c-0.5,0-0.8-0.1-0.9-0.2c-0.2-0.2-0.2-0.5-0.2-0.9v-3c0-0.5,0.1-0.8,0.2-0.9c0.2-0.2,0.5-0.2,0.9-0.2h2.8v-27.6h-2.8
			c-0.5,0-0.8-0.1-0.9-0.2c-0.2-0.2-0.2-0.5-0.2-0.9v-3c0-0.5,0.1-0.8,0.2-0.9c0.2-0.2,0.5-0.2,0.9-0.2h13.1c0.9,0,1.8,0,2.4,0.1
			s1.6,0.2,2.7,0.4c1.1,0.2,2.1,0.6,2.9,1s1.6,1.1,2.4,1.9c0.8,0.8,1.4,1.8,1.8,3c0.5,1.3,0.7,2.7,0.7,4.4c0,1.4-0.2,2.6-0.5,3.8
			c-0.3,1.1-0.7,2.1-1.1,2.7c-0.4,0.7-0.9,1.3-1.7,1.9c-0.8,0.6-1.2,1-1.6,1.2c-0.4,0.2-0.8,0.5-1.5,0.8l6.8,11.8h2.5
			c0.5,0,0.8,0.1,0.9,0.2C442.6,433.5,442.6,433.8,442.6,434.2z M422.8,416.7h1.4c1,0,1.9-0.1,2.6-0.2c0.7-0.1,1.4-0.4,2.1-0.8
			c0.7-0.4,1.2-0.9,1.5-1.8c0.4-0.8,0.5-1.8,0.5-3c0-1.1-0.2-2.1-0.5-2.8c-0.4-0.8-0.8-1.2-1.5-1.5c-0.7-0.3-1.3-0.5-1.9-0.6
			c-0.6-0.1-1.3-0.1-2.3-0.1h-2.1L422.8,416.7L422.8,416.7z"/>
		<path d="M469.9,404.3c2.4,3.4,3.7,8.4,3.7,15.1c0,6.7-1.2,11.7-3.7,15.1c-2.4,3.4-5.8,5.1-10.3,5.1s-7.9-1.7-10.3-5.1
			c-2.4-3.4-3.7-8.4-3.7-15.1c0-6.7,1.2-11.7,3.7-15.1c2.4-3.4,5.8-5.1,10.3-5.1C464.1,399.2,467.5,400.9,469.9,404.3z M459.7,433.6
			c4,0,6-4.7,6-14.2s-2-14.3-6-14.3c-4,0-6,4.8-6,14.3C453.7,428.8,455.7,433.6,459.7,433.6z"/>
		<path d="M516.6,434.2v3c0,0.5-0.1,0.8-0.2,0.9c-0.2,0.2-0.5,0.2-0.9,0.2h-11.6c-0.5,0-0.8-0.1-0.9-0.2c-0.2-0.2-0.2-0.5-0.2-0.9
			v-3c0-0.5,0.1-0.8,0.2-0.9c0.2-0.2,0.5-0.2,0.9-0.2h2.4l-0.4-14.8c0-0.7,0-2.2-0.1-4.5c0-2.4-0.1-3.8-0.1-4.5l0,0
			c-0.6,3.5-1.2,6.4-2,8.7l-3.2,10.9c-0.1,0.4-0.2,0.7-0.4,0.8c-0.1,0.1-0.4,0.2-0.8,0.2h-3.7c-0.5,0-0.8-0.1-0.8-0.2
			c-0.1-0.1-0.3-0.4-0.4-0.8l-3.2-10.9c-0.8-2.4-1.3-5.3-2-8.7h-0.1c0,0.7,0,2.2-0.1,4.5c0,2.4-0.1,3.8-0.1,4.5l-0.4,14.8h2.4
			c0.5,0,0.8,0.1,0.9,0.2c0.2,0.2,0.2,0.5,0.2,0.9v3c0,0.5-0.1,0.8-0.2,0.9s-0.5,0.2-0.9,0.2h-11.5c-0.5,0-0.8-0.1-0.9-0.2
			s-0.2-0.5-0.2-0.9v-3c0-0.5,0.1-0.8,0.2-0.9c0.2-0.2,0.5-0.2,0.9-0.2h2.5l1.1-27.6h-2.7c-0.5,0-0.8-0.1-0.9-0.2
			c-0.2-0.2-0.2-0.5-0.2-0.9v-3c0-0.5,0.1-0.8,0.2-0.9c0.2-0.2,0.5-0.2,0.9-0.2h9.4c0.4,0,0.7,0.1,0.8,0.1c0.1,0.1,0.3,0.4,0.4,0.8
			l4.5,14.1c0.8,2.3,1.2,4.5,1.6,6.7h0.1c0.4-2.3,0.8-4.5,1.6-6.7l4.5-14.1c0.1-0.3,0.2-0.5,0.3-0.6c0.1-0.1,0.2-0.2,0.3-0.2
			c0.2-0.1,0.4-0.1,0.7-0.1h9.4c0.5,0,0.8,0.1,0.9,0.2c0.1,0.1,0.2,0.5,0.2,0.9v3c0,0.5-0.1,0.8-0.2,0.9s-0.5,0.2-0.9,0.2h-2.7
			l1.1,27.6h2.5c0.5,0,0.8,0.1,0.9,0.2C516.5,433.5,516.6,433.8,516.6,434.2z"/>
		<path d="M545.6,404.3c2.4,3.4,3.7,8.4,3.7,15.1c0,6.7-1.2,11.7-3.7,15.1c-2.4,3.4-5.8,5.1-10.3,5.1s-7.9-1.7-10.3-5.1
			c-2.4-3.4-3.7-8.4-3.7-15.1c0-6.7,1.2-11.7,3.7-15.1c2.4-3.4,5.8-5.1,10.3-5.1S543.1,400.9,545.6,404.3z M535.3,433.6
			c4,0,6-4.7,6-14.2s-2-14.3-6-14.3s-6,4.8-6,14.3C529.3,428.8,531.3,433.6,535.3,433.6z"/>
		<path d="M554.8,400.2h12.8c2.8,0,5.2,0.3,7.1,0.8c1.9,0.6,3.6,1.5,5,2.8c1.4,1.3,2.4,3.3,3.2,5.8c0.7,2.5,1,5.6,1,9.5
			c0,4-0.4,7.1-1.1,9.8s-1.9,4.6-3.4,5.9c-1.5,1.4-3.2,2.4-5.1,2.8c-1.9,0.6-4.1,0.8-6.9,0.8h-12.7c-0.5,0-0.8-0.1-0.9-0.2
			c-0.1-0.1-0.2-0.5-0.2-0.9v-3c0-0.5,0.1-0.8,0.2-0.9c0.2-0.2,0.5-0.2,0.9-0.2h2.8v-27.6h-2.8c-0.5,0-0.8-0.1-0.9-0.2
			c-0.1-0.1-0.2-0.5-0.2-0.9v-3c0-0.5,0.1-0.8,0.2-0.9C553.8,400.5,554.3,400.2,554.8,400.2z M565.1,432.5h2.2
			c3.2,0,5.5-0.9,6.8-2.8c1.2-1.9,1.9-5.4,1.9-10.6c0-4.9-0.7-8.3-2-10.1c-1.3-1.8-3.6-2.7-6.8-2.7H565L565.1,432.5L565.1,432.5z"/>
	</g>
</g>
</svg>
