<?xml version="1.0" encoding="utf-8"?>
<!-- Generator: Adobe Illustrator 18.0.0, SVG Export Plug-In . SVG Version: 6.00 Build 0)  -->
<!DOCTYPE svg PUBLIC "-//W3C//DTD SVG 1.1//EN" "http://www.w3.org/Graphics/SVG/1.1/DTD/svg11.dtd">
<svg version="1.1" id="Layer_1" xmlns="http://www.w3.org/2000/svg" xmlns:xlink="http://www.w3.org/1999/xlink" x="0px" y="0px"
	 viewBox="0 0 595.3 841.9" enable-background="new 0 0 595.3 841.9" xml:space="preserve">
<g id="Background">
</g>
<g id="Layer_1_1_">
	<g>
		
			<linearGradient id="SVGID_1_" gradientUnits="userSpaceOnUse" x1="0.1" y1="796.24" x2="105.4" y2="796.24" gradientTransform="matrix(2.9719 0 0 -2.9719 0 2795.6458)">
			<stop  offset="0.6548" style="stop-color:#1B2962"/>
			<stop  offset="1" style="stop-color:#264B9B"/>
		</linearGradient>
		<path fill="url(#SVGID_1_)" d="M0.3,420.8l141.5,3.3l-61.8,56.2l80.2-24.7L115.6,548l74.3-71.3l8.6,44.9l27.3-37.7l27.6,43.4
			l7.7-51.1c-10.7,4.8-23.2,7.4-35.7,7.4c-48.7,0-88.3-38.6-88.3-86.5c0-3.3,0-6.5,0.3-9.5L0.3,420.8z M261.2,476.1
			c30.6-13.4,52-43.7,52-79.1c0-47.8-39.5-86.5-88.3-86.5c-44.9,0-82.3,33.6-87.4,77l38.6-6.2l-25.6-26.7l45.2,16.3l-19.6-41.6
			l40.4,49.9l-9.2-64.8l17.8,31.8l17.2-32.1l-8.9,65.1l40.7-49.9l-21.4,43.1l46.7-18.1l-26.7,27.9l38.6,5.3l-70.1,11l65.1,24.4
			l-38.6-1.5l22,33.6l-20.5,2.1L261.2,476.1z"/>
		
			<linearGradient id="SVGID_2_" gradientUnits="userSpaceOnUse" x1="9.094947e-13" y1="796.24" x2="105.6" y2="796.24" gradientTransform="matrix(2.9719 0 0 -2.9719 0 2795.6458)">
			<stop  offset="0.6548" style="stop-color:#1B2962"/>
			<stop  offset="1" style="stop-color:#264B9B"/>
		</linearGradient>
		<path fill="url(#SVGID_2_)" d="M115.3,548.3L115.3,548.3c-0.3,0-0.3-0.3-0.3-0.3l44.3-91.8l-79.6,24.7h-0.3v-0.3l61.8-56.2
			L0.3,421.1c0,0-0.3,0-0.3-0.3c0,0,0-0.3,0.3-0.3l137.3-33.3c2.4-21.1,12.5-40.4,28.8-54.7s37.1-22.3,59.1-22.3
			c23.5,0,45.8,8.9,62.4,25.6c16.6,16.3,25.9,38,25.9,61.2c0,16.9-5.1,33.6-14.6,47.8c-9.2,13.7-22.3,24.7-37.7,31.5l-7.7,51.1
			c0,0,0,0.3-0.3,0.3h-0.3l-27.3-43.1l-27,37.1h-0.3c0,0-0.3,0-0.3-0.3l-8.6-44.3L115.3,548.3C115.6,548.3,115.6,548.3,115.3,548.3z
			 M160.2,455.6L160.2,455.6l-44,91.2l73.4-70.4c-9.8-4.2-18.7-10.4-26.5-17.8C162,457.6,161.1,456.5,160.2,455.6z M226.2,483.8
			l27.3,42.8l7.7-49.9C249.6,481.1,237.8,483.8,226.2,483.8z M190.2,476.7l8.6,44l26.7-36.9C213.1,483.8,201.2,481.4,190.2,476.7z
			 M137.9,387.5c-0.3,2.7-0.3,5.1-0.3,7.7c0,0.6,0,1.2,0,1.8c0,23.2,9.2,44.6,25.9,60.9c16.6,16.3,38.6,25.3,62.1,25.3
			c11.9,0,24.1-2.7,35.7-7.4l7.7-18.4c0,0,0-0.3,0.3-0.3l20.2-2.1l-22-33.3v-0.3c0,0,0,0,0.3,0l36.9,1.5L241,399.1l-0.3-0.3
			c0,0,0-0.3,0.3-0.3l68.4-11l-36.9-5.1c0,0-0.3,0-0.3-0.3v-0.3l26.2-27l-45.5,17.8h-0.3v-0.3l20.5-41l-38.9,48.1h-0.3l-0.3-0.3
			l8.6-63.6l-16.6,30.6c0,0,0,0-0.3,0H225L208,315.9l8.9,63.3l0,0c0,0.3,0,0.3-0.3,0.3h-0.3l-38.9-48.1l18.7,39.2c0,0,0,0,0,0.3
			c0,0.3,0,0.3-0.3,0.3l0,0l-44-16l24.7,26.2v0.3c0,0,0,0.3-0.3,0.3L137.9,387.5z M141.8,424.7l-60.9,55l79.1-24.4c0,0,0,0,0.3,0
			C151.9,446.4,145.6,436,141.8,424.7z M269.3,457.6l-7.4,17.8c10.7-4.8,20.2-11.6,27.9-19.9l0,0L269.3,457.6z M268.4,422l21.7,33.3
			c0,0,0,0,0,0.3c3.3-3.3,5.9-6.8,8.6-10.7c9.5-14,14.6-30.6,14.6-47.6c0-23.2-9.2-44.6-25.9-60.9c-16.6-16.3-38.6-25.3-62.1-25.3
			c-21.7,0-42.5,7.7-58.8,22.3c-16,14-26.2,33.3-28.5,54.1l37.7-5.9l-25.3-26.5v-0.3c0,0,0.3-0.3,0.3,0l44.6,16l-19.3-40.7v-0.3h0.3
			l39.8,49.3l-8.9-64.8c0,0,0-0.3,0.3-0.3h0.3l17.8,31.2l17.2-31.5c0,0,0.3-0.3,0.3,0l0.3,0.3l-8.9,64.2l39.5-49h0.3
			c0,0,0.3,0.3,0,0.3l-21.1,42.5l46.1-17.8h0.3v0.3l-26.2,27.6l38,5.3c0,0,0.3,0,0.3,0.3c0,0,0,0.3-0.3,0.3l-68.9,11l64.2,24.1
			l0.3,0.3c0,0,0,0.3-0.3,0.3L268.4,422z M2.4,420.5l139.1,3.3c-2.7-8.6-4.2-17.5-4.2-26.7c0-0.6,0-1.2,0-1.8c0-2.4,0-5.1,0.3-7.4
			L2.4,420.5z"/>
	</g>
	<g opacity="0.85">
		<g>
			<polygon fill="#FFFF00" points="225,293.6 228.8,306.1 241.9,306.1 231.5,313.8 235.4,326.3 225,318.6 214.3,326.3 218.1,313.8 
				207.7,306.1 220.8,306.1 			"/>
			<path fill="#996600" d="M235.4,326.3L235.4,326.3l-10.4-7.4l-10.7,7.4c0,0,0,0-0.3,0c0,0,0,0,0-0.3l3.9-12.2l-10.4-7.7
				c0,0,0,0,0-0.3l0,0h12.8l4.5-12.2h0.3l4.2,12.2h12.8l0,0c0,0,0,0,0,0.3l-10.1,7.7L235.4,326.3
				C235.7,326.3,235.4,326.3,235.4,326.3L235.4,326.3z M225,318.6L225,318.6l10.4,7.4l-3.9-11.9c0,0,0,0,0-0.3l10.1-7.4h-12.5l0,0
				l-3.9-11.9l-3.9,11.9l0,0h-12.5l10.1,7.4c0,0,0,0,0,0.3l-3.9,11.9L225,318.6C224.7,318.6,225,318.6,225,318.6z"/>
		</g>
	</g>
	<g opacity="0.85">
		<g>
			<polygon fill="#FFFF00" points="224.4,466.3 228.5,478.5 241.3,478.5 230.9,486.2 234.8,498.7 224.4,491.2 213.7,498.7 
				217.5,486.2 207.1,478.5 220.2,478.5 			"/>
			<path fill="#996600" d="M234.8,498.7L234.8,498.7l-10.4-7.4l-10.4,7.4c0,0,0,0-0.3,0c0,0,0,0,0-0.3l3.9-12.2l-10.4-7.7
				c0,0,0,0,0-0.3l0,0h12.8l4.2-12.2h0.3l4.2,12.2h12.8l0,0c0,0,0,0,0,0.3l-10.4,7.7L234.8,498.7
				C235.1,498.7,235.1,498.7,234.8,498.7L234.8,498.7z M224.4,490.9L224.4,490.9l10.4,7.4l-3.9-11.9c0,0,0,0,0-0.3l10.1-7.4h-12.5
				l0,0l-3.9-11.9l-3.9,11.9l0,0h-12.5l10.1,7.4c0,0,0,0,0,0.3l-3.9,11.9L224.4,490.9L224.4,490.9z"/>
		</g>
	</g>
	<g opacity="0.85">
		<g>
			<polygon fill="#FFFF00" points="178,451.1 182.2,463.3 195.3,463.3 184.9,471 188.7,483.5 178,475.8 167.6,483.5 171.5,471 
				161.1,463.3 174.2,463.3 			"/>
			<path fill="#996600" d="M188.7,483.5L188.7,483.5l-10.4-7.4l-10.4,7.4c0,0,0,0-0.3,0c0,0,0,0,0-0.3l3.9-12.2l-10.4-7.7
				c0,0,0,0,0-0.3l0,0h12.8l4.2-12.2h0.3l4.2,12.2h12.8l0,0c0,0,0,0,0,0.3l-10.4,7.7L188.7,483.5L188.7,483.5L188.7,483.5z
				 M178,475.8C178,475.8,178.3,475.8,178,475.8l10.4,7.4l-3.9-11.9c0,0,0,0,0-0.3l10.1-7.4h-12.5l0,0l-3.9-11.9l-3.9,11.9l0,0H162
				l10.1,7.4c0,0,0,0,0,0.3l-3.9,11.9L178,475.8L178,475.8z"/>
		</g>
	</g>
	<g opacity="0.85">
		<g>
			<polygon fill="#FFFF00" points="146.8,417.8 151,430 164.1,430.3 153.6,438 157.5,450.2 146.8,442.8 136.4,450.2 140.3,438 
				129.9,430.3 142.7,430 			"/>
			<path fill="#996600" d="M157.5,450.5L157.5,450.5l-10.4-7.4l-10.4,7.4c0,0,0,0-0.3,0c0,0,0,0,0-0.3l3.9-12.2l-10.4-7.7
				c0,0,0,0,0-0.3l0,0h12.8l4.2-12.2h0.3l4.2,12.2h12.8l0,0c0,0,0,0,0,0.3l-10.4,7.7L157.5,450.5
				C157.5,450.2,157.5,450.2,157.5,450.5L157.5,450.5z M130.2,430.3l10.1,7.4c0,0,0,0,0,0.3l-3.9,11.9l10.1-7.1c0,0,0,0,0.3,0
				l10.1,7.1l-3.9-11.9c0,0,0,0,0-0.3l10.4-7.4H151l0,0l-3.9-11.9l-3.9,11.9l0,0H130.2z"/>
		</g>
	</g>
	<g opacity="0.85">
		<g>
			<polygon fill="#FFFF00" points="136.7,378.9 140.9,391.1 153.9,391.1 143.5,398.8 147.4,411.3 136.7,403.6 126.3,411.3 
				130.2,398.8 119.8,391.1 132.8,391.1 			"/>
			<path fill="#996600" d="M147.4,411.3L147.4,411.3l-10.7-7.4l-10.4,7.4c0,0,0,0-0.3,0c0,0,0,0,0-0.3l3.9-12.2l-10.4-7.7
				c0,0,0,0,0-0.3l0,0h12.8l4.2-12.2h0.3l4.2,12.2h12.8l0,0c0,0,0,0,0,0.3l-10.4,7.7L147.4,411.3L147.4,411.3L147.4,411.3z
				 M136.7,403.6C137,403.6,137,403.6,136.7,403.6l10.4,7.4l-3.9-11.9c0,0,0,0,0-0.3l10.1-7.4h-12.5l0,0l-3.9-11.9l-3.9,11.9l0,0
				h-12.5l10.1,7.4c0,0,0,0,0,0.3l-3.9,11.9L136.7,403.6L136.7,403.6z"/>
		</g>
	</g>
	<g opacity="0.85">
		<g>
			<polygon fill="#FFFF00" points="148.9,335.2 153.1,347.7 165.8,347.7 155.4,355.4 159.3,367.6 148.9,360.2 138.2,367.6 
				142.1,355.4 131.7,347.7 144.7,347.7 			"/>
			<path fill="#996600" d="M159.3,367.9L159.3,367.9l-10.4-7.4l-10.7,7.4c0,0,0,0-0.3,0c0,0,0,0,0-0.3l3.9-12.2l-10.4-7.7
				c0,0,0,0,0-0.3l0,0h12.8l4.5-12.2h0.3l4.2,12.2h12.8l0,0c0,0,0,0,0,0.3l-10.4,7.7L159.3,367.9
				C159.6,367.6,159.6,367.9,159.3,367.9L159.3,367.9z M148.9,360.2L148.9,360.2l10.4,7.4l-3.9-11.9c0,0,0,0,0-0.3l10.1-7.4h-12.5
				l0,0l-3.9-11.9l-3.9,11.9l0,0h-12.5l10.1,7.4c0,0,0,0,0,0.3l-3.9,11.9L148.9,360.2C148.6,360.2,148.9,360.2,148.9,360.2z"/>
		</g>
	</g>
	<g opacity="0.85">
		<g>
			<polygon fill="#FFFF00" points="181.6,303.7 185.7,316.2 198.8,316.2 188.4,323.9 192.3,336.1 181.6,328.7 171.2,336.1 
				175,323.9 164.6,316.2 177.4,316.2 			"/>
			<path fill="#996600" d="M192.3,336.4L192.3,336.4l-10.4-7.4l-10.4,7.4c0,0,0,0-0.3,0c0,0,0,0,0-0.3l3.9-12.2l-10.4-7.7
				c0,0,0,0,0-0.3l0,0h12.8l4.2-12.2h0.3l4.2,12.2h12.8l0,0c0,0,0,0,0,0.3l-10.4,7.7L192.3,336.4
				C192.3,336.1,192.3,336.4,192.3,336.4L192.3,336.4z M181.6,328.7L181.6,328.7l10.4,7.4l-3.9-11.9c0,0,0,0,0-0.3l10.1-7.4h-12.5
				l0,0l-3.9-11.9l-3.9,11.9l0,0h-12.5l10.1,7.4c0,0,0,0,0,0.3l-3.9,11.9L181.6,328.7L181.6,328.7z"/>
		</g>
	</g>
	<g opacity="0.85">
		<g>
			<polygon fill="#FFFF00" points="270.4,451.4 274.6,463.9 287.7,463.9 277.3,471.6 281.1,484.1 270.4,476.4 260,484.1 
				263.9,471.6 253.5,463.9 266.3,463.9 			"/>
			<path fill="#996600" d="M281.1,484.1C281.1,484.1,280.8,484.1,281.1,484.1l-10.7-7.4l-10.4,7.4c0,0,0,0-0.3,0c0,0,0,0,0-0.3
				l3.9-12.2l-10.4-7.7c0,0,0,0,0-0.3l0,0H266l4.2-12.2l0,0l0,0l0,0l4.2,12.2h12.8l0,0c0,0,0,0,0,0.3l-10.4,7.7L281.1,484.1
				L281.1,484.1L281.1,484.1z M253.8,464.2l10.1,7.4c0,0,0,0,0,0.3l-3.9,11.9l10.1-7.1c0,0,0,0,0.3,0l10.1,7.1l-3.9-11.9
				c0,0,0,0,0-0.3l10.1-7.4h-12.5l0,0l-3.9-11.9l-3.9,11.9l0,0H253.8z"/>
		</g>
	</g>
	<g opacity="0.85">
		<g>
			<polygon fill="#FFFF00" points="267.8,304.3 271.9,316.5 284.7,316.8 274.3,324.5 278.2,336.7 267.8,329.3 257.4,336.7 
				261.2,324.5 250.8,316.8 263.6,316.5 			"/>
			<path fill="#996600" d="M278.2,337L278.2,337l-10.4-7.7l-10.4,7.4c0,0,0,0-0.3,0c0,0,0,0,0-0.3l3.9-12.2l-10.4-7.7c0,0,0,0,0-0.3
				l0,0h12.8l4.2-12.2h0.3l4.2,12.2h12.8l0,0c0,0,0,0,0,0.3l-10.4,7.7L278.2,337C278.5,336.7,278.5,336.7,278.2,337
				C278.5,337,278.5,337,278.2,337z M267.8,329L267.8,329l10.4,7.4l-3.9-11.9c0,0,0,0,0-0.3l10.1-7.4h-12.5l0,0l-3.9-11.9l-3.9,11.9
				l0,0h-12.5l10.1,7.4c0,0,0,0,0,0.3l-3.9,11.9L267.8,329L267.8,329z"/>
		</g>
	</g>
	<g opacity="0.85">
		<g>
			<polygon fill="#FFFF00" points="299.9,335.8 304,348 316.8,348.3 306.4,356 310.3,368.2 299.9,360.8 289.2,368.2 293,356 
				282.6,348.3 295.7,348 			"/>
			<path fill="#996600" d="M310.3,368.5L310.3,368.5l-10.4-7.4l-10.4,7.4c0,0,0,0-0.3,0c0,0,0,0,0-0.3L293,356l-10.4-7.7
				c0,0,0,0,0-0.3l0,0h12.8l4.2-12.2h0.3L304,348h12.8l0,0c0,0,0,0,0,0.3l-10.4,7.7L310.3,368.5
				C310.6,368.2,310.6,368.2,310.3,368.5L310.3,368.5z M283.2,348.3l10.1,7.4c0,0,0,0,0,0.3l-3.9,11.9l10.1-7.1c0,0,0,0,0.3,0
				l10.1,7.1l-3.9-11.9c0,0,0,0,0-0.3l10.1-7.4h-12.5l0,0l-3.9-11.9l-3.9,11.9l0,0H283.2z"/>
		</g>
	</g>
	<g opacity="0.85">
		<g>
			<polygon fill="#FFFF00" points="312.6,379.2 316.8,391.7 329.6,391.7 319.2,399.4 323.1,411.6 312.6,404.2 301.9,411.6 
				305.8,399.4 295.4,391.7 308.5,391.7 			"/>
			<path fill="#996600" d="M301.9,411.9L301.9,411.9L301.9,411.9l3.9-12.5l-10.4-7.7c0,0,0,0,0-0.3l0,0h12.8l4.2-12.2l0,0l0,0l0,0
				l4.2,12.2h12.8l0,0c0,0,0,0,0,0.3l-10.4,7.7l3.9,12.2c0,0,0,0,0,0.3c0,0,0,0-0.3,0l-10.4-7.4L301.9,411.9
				C302.2,411.9,301.9,411.9,301.9,411.9z M296,391.7l10.1,7.4c0,0,0,0,0,0.3l-3.9,11.9l10.1-7.1c0,0,0,0,0.3,0l10.1,7.1l-3.9-11.9
				c0,0,0,0,0-0.3l10.1-7.4h-12.5l0,0l-3.9-11.9l-3.9,11.9l0,0H296z"/>
		</g>
	</g>
	<g opacity="0.85">
		<g>
			<polygon fill="#FFFF00" points="302.2,418.7 306.4,430.9 319.2,431.2 308.8,438.6 312.9,451.1 302.2,443.7 291.8,451.1 
				295.7,438.6 285.3,431.2 298.1,430.9 			"/>
			<path fill="#996600" d="M312.9,451.1C312.6,451.1,312.6,451.1,312.9,451.1l-10.4-7.4l-10.7,7.4c0,0,0,0-0.3,0c0,0,0,0,0-0.3
				l3.9-12.2l-10.4-7.7c0,0,0,0,0-0.3l0,0h12.8l4.2-12.2h0.3l4.2,12.2h12.8l0,0c0,0,0,0,0,0.3l-10.4,7.7L312.9,451.1L312.9,451.1
				L312.9,451.1z M302.2,443.4L302.2,443.4l10.4,7.4l-3.9-11.9c0,0,0,0,0-0.3l10.1-7.4h-12.5l0,0l-3.9-11.9l-3.9,11.9l0,0h-12.5
				l10.1,7.4c0,0,0,0,0,0.3l-3.9,11.9L302.2,443.4L302.2,443.4z"/>
		</g>
	</g>
	<g enable-background="new    ">
		<path d="M363.1,455.5v9.3c0,0.5-0.1,0.9-0.2,1s-0.5,0.2-1,0.2H338c-0.5,0-0.9-0.1-1-0.2s-0.2-0.5-0.2-1v-3.2c0-0.5,0.1-0.9,0.2-1
			c0.2-0.2,0.5-0.2,1-0.2h3v-29.3h-3c-0.5,0-0.9-0.1-1-0.2s-0.2-0.5-0.2-1v-3.2c0-0.5,0.1-0.9,0.2-1s0.5-0.2,1-0.2h23.8
			c0.5,0,0.9,0.1,1,0.2c0.2,0.1,0.2,0.4,0.2,0.8v9c0,0.5-0.1,0.9-0.3,1c-0.2,0.2-0.5,0.2-1,0.2h-3.9c-0.5,0-0.9-0.1-1-0.2
			c-0.2-0.2-0.2-0.5-0.2-1v-3.6h-7.5v9.8h10.1c0.6,0,0.9,0.1,1,0.2c0.1,0.2,0.2,0.5,0.2,1v3.9c0,0.5-0.1,0.9-0.2,1
			c-0.2,0.2-0.5,0.2-1,0.2h-10.1v11.7h7.5v-4.2c0-0.5,0.1-0.9,0.2-1c0.1-0.2,0.5-0.2,1-0.2h3.9c0.6,0,0.9,0.1,1,0.2
			S363.1,454.9,363.1,455.5z"/>
		<path d="M401.1,431.1v21.2c0,4.8-1.1,8.5-3.2,11c-2.1,2.5-5.8,3.8-11.1,3.8c-5.3,0-9-1.3-11.1-3.8c-2.1-2.5-3.2-6.2-3.2-11v-21.2
			h-3c-0.5,0-0.9-0.1-1-0.2s-0.2-0.5-0.2-1v-3.2c0-0.5,0.1-0.9,0.2-1s0.5-0.2,1-0.2h14c0.5,0,0.9,0.1,1,0.2c0.2,0.2,0.2,0.5,0.2,1
			v3.2c0,0.5-0.1,0.9-0.2,1c-0.2,0.2-0.5,0.2-1,0.2h-3v21.2c0,1.3,0,2.4,0.1,3.2c0.1,0.8,0.3,1.7,0.7,2.6c0.4,0.9,1,1.6,1.9,2
			c0.9,0.4,2.1,0.7,3.5,0.7s2.6-0.2,3.5-0.7c0.9-0.4,1.6-1.1,1.9-2c0.4-0.9,0.6-1.7,0.7-2.6s0.1-1.9,0.1-3.2v-21.2h-3
			c-0.5,0-0.9-0.1-1-0.2c-0.2-0.2-0.2-0.5-0.2-1v-3.2c0-0.5,0.1-0.9,0.2-1c0.2-0.2,0.5-0.2,1-0.2h14c0.5,0,0.9,0.1,1,0.2
			s0.2,0.5,0.2,1v3.2c0,0.5-0.1,0.9-0.2,1s-0.5,0.2-1,0.2H401.1z"/>
		<path d="M442.9,461.6v3.2c0,0.5-0.1,0.9-0.2,1s-0.5,0.2-1,0.2h-7.6c-0.5,0-0.8,0-0.9-0.1c-0.1-0.1-0.3-0.3-0.5-0.7l-8-16h-2.9
			v11.1h2.8c0.5,0,0.9,0.1,1,0.2c0.2,0.2,0.2,0.5,0.2,1v3.2c0,0.5-0.1,0.9-0.2,1c-0.2,0.2-0.5,0.2-1,0.2h-13.8c-0.5,0-0.9-0.1-1-0.2
			c-0.2-0.2-0.2-0.5-0.2-1v-3.2c0-0.5,0.1-0.9,0.2-1c0.2-0.2,0.5-0.2,1-0.2h3v-29.3h-3c-0.5,0-0.9-0.1-1-0.2c-0.2-0.2-0.2-0.5-0.2-1
			v-3.2c0-0.5,0.1-0.9,0.2-1c0.2-0.2,0.5-0.2,1-0.2h13.9c1,0,1.9,0,2.6,0.1c0.7,0.1,1.7,0.2,2.9,0.4c1.2,0.2,2.2,0.6,3.1,1.1
			c0.9,0.5,1.7,1.2,2.6,2c0.8,0.8,1.5,1.9,1.9,3.2c0.5,1.4,0.7,2.9,0.7,4.7c0,1.5-0.2,2.8-0.5,4s-0.7,2.2-1.2,2.9
			c-0.4,0.7-1,1.4-1.8,2c-0.8,0.6-1.3,1.1-1.7,1.3c-0.4,0.2-0.9,0.5-1.6,0.9l7.2,12.5h2.7c0.5,0,0.9,0.1,1,0.2
			C442.9,460.8,442.9,461.1,442.9,461.6z M421.8,443h1.5c1.1,0,2-0.1,2.8-0.2c0.7-0.1,1.5-0.4,2.2-0.8c0.7-0.4,1.3-1,1.6-1.9
			c0.4-0.9,0.5-1.9,0.5-3.2c0-1.2-0.2-2.2-0.5-3c-0.4-0.8-0.9-1.3-1.6-1.6c-0.7-0.3-1.4-0.5-2-0.6c-0.6-0.1-1.4-0.1-2.4-0.1h-2.2
			V443z"/>
		<path d="M471.9,429.8c2.6,3.6,3.9,8.9,3.9,16c0,7.1-1.3,12.4-3.9,16c-2.6,3.6-6.2,5.4-10.9,5.4c-4.7,0-8.4-1.8-10.9-5.4
			c-2.6-3.6-3.9-8.9-3.9-16c0-7.1,1.3-12.4,3.9-16c2.6-3.6,6.2-5.4,10.9-5.4S469.3,426.2,471.9,429.8z M461,460.9
			c4.2,0,6.4-5,6.4-15.1c0-10.1-2.1-15.2-6.4-15.2s-6.4,5.1-6.4,15.2C454.7,455.8,456.8,460.9,461,460.9z"/>
		<path d="M521.5,461.6v3.2c0,0.5-0.1,0.9-0.2,1c-0.2,0.2-0.5,0.2-1,0.2H508c-0.5,0-0.9-0.1-1-0.2c-0.2-0.2-0.2-0.5-0.2-1v-3.2
			c0-0.5,0.1-0.9,0.2-1c0.2-0.2,0.5-0.2,1-0.2h2.6l-0.4-15.7c0-0.7,0-2.3-0.1-4.8c0-2.5-0.1-4-0.1-4.8H510c-0.6,3.7-1.3,6.8-2.1,9.3
			l-3.4,11.6c-0.1,0.4-0.2,0.7-0.4,0.8c-0.1,0.1-0.4,0.2-0.9,0.2h-3.9c-0.5,0-0.8-0.1-0.9-0.2c-0.1-0.1-0.3-0.4-0.4-0.8l-3.4-11.6
			c-0.8-2.5-1.4-5.6-2.1-9.3h-0.1c0,0.7,0,2.3-0.1,4.8c0,2.5-0.1,4-0.1,4.8l-0.4,15.7h2.6c0.5,0,0.9,0.1,1,0.2
			c0.2,0.2,0.2,0.5,0.2,1v3.2c0,0.5-0.1,0.9-0.2,1s-0.5,0.2-1,0.2h-12.2c-0.5,0-0.9-0.1-1-0.2s-0.2-0.5-0.2-1v-3.2
			c0-0.5,0.1-0.9,0.2-1c0.2-0.2,0.5-0.2,1-0.2h2.7l1.2-29.3h-2.9c-0.5,0-0.9-0.1-1-0.2c-0.2-0.2-0.2-0.5-0.2-1v-3.2
			c0-0.5,0.1-0.9,0.2-1c0.2-0.2,0.5-0.2,1-0.2h10c0.4,0,0.7,0.1,0.9,0.1c0.1,0.1,0.3,0.4,0.4,0.8l4.8,15c0.8,2.4,1.3,4.8,1.7,7.1
			h0.1c0.4-2.4,0.9-4.8,1.7-7.1l4.8-15c0.1-0.3,0.2-0.5,0.3-0.6c0.1-0.1,0.2-0.2,0.3-0.2c0.2-0.1,0.4-0.1,0.7-0.1h10
			c0.5,0,0.9,0.1,1,0.2s0.2,0.5,0.2,1v3.2c0,0.5-0.1,0.9-0.2,1s-0.5,0.2-1,0.2h-2.9l1.2,29.3h2.7c0.5,0,0.9,0.1,1,0.2
			C521.4,460.8,521.5,461.1,521.5,461.6z"/>
		<path d="M552.3,429.8c2.6,3.6,3.9,8.9,3.9,16c0,7.1-1.3,12.4-3.9,16c-2.6,3.6-6.2,5.4-10.9,5.4c-4.7,0-8.4-1.8-10.9-5.4
			c-2.6-3.6-3.9-8.9-3.9-16c0-7.1,1.3-12.4,3.9-16c2.6-3.6,6.2-5.4,10.9-5.4S549.7,426.2,552.3,429.8z M541.4,460.9
			c4.2,0,6.4-5,6.4-15.1c0-10.1-2.1-15.2-6.4-15.2s-6.4,5.1-6.4,15.2C535,455.8,537.1,460.9,541.4,460.9z"/>
		<path d="M562.1,425.4h13.6c3,0,5.5,0.3,7.5,0.9s3.8,1.6,5.3,3c1.5,1.4,2.6,3.5,3.4,6.2c0.7,2.7,1.1,6,1.1,10.1
			c0,4.2-0.4,7.6-1.2,10.4c-0.8,2.8-2,4.9-3.6,6.3c-1.6,1.5-3.4,2.5-5.4,3c-2,0.6-4.4,0.8-7.3,0.8h-13.5c-0.5,0-0.9-0.1-1-0.2
			s-0.2-0.5-0.2-1v-3.2c0-0.5,0.1-0.9,0.2-1c0.2-0.2,0.5-0.2,1-0.2h3v-29.3h-3c-0.5,0-0.9-0.1-1-0.2s-0.2-0.5-0.2-1v-3.2
			c0-0.5,0.1-0.9,0.2-1S561.6,425.4,562.1,425.4z M573.1,459.7h2.3c3.4,0,5.8-1,7.2-3c1.3-2,2-5.7,2-11.3c0-5.2-0.7-8.8-2.1-10.7
			s-3.8-2.9-7.2-2.9h-2.3V459.7z"/>
	</g>
</g>
</svg>
