<?xml version="1.0" encoding="utf-8"?>
<!-- Generator: Adobe Illustrator 17.1.0, SVG Export Plug-In . SVG Version: 6.00 Build 0)  -->
<!DOCTYPE svg PUBLIC "-//W3C//DTD SVG 1.1//EN" "http://www.w3.org/Graphics/SVG/1.1/DTD/svg11.dtd">
<svg version="1.1" xmlns="http://www.w3.org/2000/svg" xmlns:xlink="http://www.w3.org/1999/xlink" x="0px" y="0px"
	 viewBox="0 0 200.3 85.7" enable-background="new 0 0 200.3 85.7" xml:space="preserve">
<g id="Background">
</g>
<g id="Layer_1">
	<g>
		<linearGradient id="SVGID_1_" gradientUnits="userSpaceOnUse" x1="9.140225e-02" y1="45.6502" x2="105.4746" y2="45.6502">
			<stop  offset="0.6548" style="stop-color:#1B2962"/>
			<stop  offset="1" style="stop-color:#264B9B"/>
		</linearGradient>
		<path fill-rule="evenodd" clip-rule="evenodd" fill="url(#SVGID_1_)" d="M0.1,42.8l47.6,1.1L26.9,62.8l27-8.3l-15,31.1l25-24
			l2.9,15.1L76,64l9.3,14.6l2.6-17.2c-3.6,1.6-7.8,2.5-12,2.5c-16.4,0-29.7-13-29.7-29.1c0-1.1,0-2.2,0.1-3.2L0.1,42.8z M87.9,61.4
			c10.3-4.5,17.5-14.7,17.5-26.6c0-16.1-13.3-29.1-29.7-29.1C60.6,5.7,48,17,46.3,31.6l13-2.1l-8.6-9l15.2,5.5L59.3,12l13.6,16.8
			L69.8,7l6,10.7l5.8-10.8l-3,21.9L92.3,12l-7.2,14.5l15.7-6.1l-9,9.4l13,1.8l-23.6,3.7l21.9,8.2l-13-0.5l7.4,11.3l-6.9,0.7
			L87.9,61.4z"/>
		<linearGradient id="SVGID_2_" gradientUnits="userSpaceOnUse" x1="-2.623926e-06" y1="45.6502" x2="105.566" y2="45.6502">
			<stop  offset="0.6548" style="stop-color:#1B2962"/>
			<stop  offset="1" style="stop-color:#264B9B"/>
		</linearGradient>
		<path fill="url(#SVGID_2_)" d="M38.8,85.7C38.8,85.7,38.8,85.7,38.8,85.7c-0.1,0-0.1-0.1-0.1-0.1l14.9-30.9l-26.8,8.3
			c0,0-0.1,0-0.1,0c0,0,0-0.1,0-0.1L47.5,44L0.1,42.9c0,0-0.1,0-0.1-0.1c0,0,0-0.1,0.1-0.1l46.2-11.2c0.8-7.1,4.2-13.6,9.7-18.4
			c5.5-4.8,12.5-7.5,19.9-7.5c7.9,0,15.4,3,21,8.6c5.6,5.5,8.7,12.8,8.7,20.6c0,5.7-1.7,11.3-4.9,16.1c-3.1,4.6-7.5,8.3-12.7,10.6
			l-2.6,17.2c0,0,0,0.1-0.1,0.1c0,0-0.1,0-0.1,0l-9.2-14.5l-9.1,12.5c0,0-0.1,0-0.1,0c0,0-0.1,0-0.1-0.1l-2.9-14.9L38.8,85.7
			C38.9,85.7,38.9,85.7,38.8,85.7z M53.9,54.5C53.9,54.5,53.9,54.5,53.9,54.5L39.1,85.2l24.7-23.7c-3.3-1.4-6.3-3.5-8.9-6
			C54.5,55.2,54.2,54.8,53.9,54.5z M76.1,64l9.2,14.4l2.6-16.8C84,63.1,80,64,76.1,64z M64,61.6l2.9,14.8l9-12.4
			C71.7,64,67.7,63.2,64,61.6z M46.4,31.6c-0.1,0.9-0.1,1.7-0.1,2.6c0,0.2,0,0.4,0,0.6c0,7.8,3.1,15,8.7,20.5
			c5.6,5.5,13,8.5,20.9,8.5c4,0,8.1-0.9,12-2.5l2.6-6.2c0,0,0-0.1,0.1-0.1l6.8-0.7L90,43.1c0,0,0-0.1,0-0.1c0,0,0,0,0.1,0l12.4,0.5
			l-21.4-8c0,0-0.1-0.1-0.1-0.1c0,0,0-0.1,0.1-0.1l23-3.7l-12.4-1.7c0,0-0.1,0-0.1-0.1c0,0,0-0.1,0-0.1l8.8-9.1l-15.3,6
			c0,0-0.1,0-0.1,0c0,0,0-0.1,0-0.1l6.9-13.8L78.8,28.9c0,0-0.1,0-0.1,0c0,0-0.1-0.1-0.1-0.1l2.9-21.4l-5.6,10.3c0,0,0,0-0.1,0
			c0,0-0.1,0-0.1,0L70,7.5l3,21.3c0,0,0,0,0,0c0,0.1,0,0.1-0.1,0.1c0,0-0.1,0-0.1,0L59.7,12.7L66,25.9c0,0,0,0,0,0.1
			c0,0.1,0,0.1-0.1,0.1c0,0,0,0,0,0l-14.8-5.4l8.3,8.8c0,0,0,0.1,0,0.1c0,0,0,0.1-0.1,0.1L46.4,31.6z M47.7,44.1L27.2,62.6l26.6-8.2
			c0,0,0,0,0.1,0C51.1,51.4,49,47.9,47.7,44.1z M90.6,55.2l-2.5,6c3.6-1.6,6.8-3.9,9.4-6.7c0,0,0,0,0,0L90.6,55.2z M90.3,43.2
			l7.3,11.2c0,0,0,0,0,0.1c1.1-1.1,2-2.3,2.9-3.6c3.2-4.7,4.9-10.3,4.9-16c0-7.8-3.1-15-8.7-20.5c-5.6-5.5-13-8.5-20.9-8.5
			c-7.3,0-14.3,2.6-19.8,7.5c-5.4,4.7-8.8,11.2-9.6,18.2l12.7-2l-8.5-8.9c0,0,0-0.1,0-0.1c0,0,0.1-0.1,0.1,0l15,5.4l-6.5-13.7
			c0,0,0-0.1,0-0.1c0,0,0.1,0,0.1,0l13.4,16.6L69.7,7c0,0,0-0.1,0.1-0.1c0,0,0.1,0,0.1,0l6,10.5l5.8-10.6c0,0,0.1-0.1,0.1,0
			c0,0,0.1,0.1,0.1,0.1l-3,21.6L92.2,12c0,0,0.1,0,0.1,0c0,0,0.1,0.1,0,0.1l-7.1,14.3l15.5-6c0,0,0.1,0,0.1,0c0,0,0,0.1,0,0.1
			L92,29.8l12.8,1.8c0,0,0.1,0,0.1,0.1c0,0,0,0.1-0.1,0.1l-23.2,3.7l21.6,8.1c0,0,0.1,0.1,0.1,0.1c0,0,0,0.1-0.1,0.1L90.3,43.2z
			 M0.8,42.7l46.8,1.1c-0.9-2.9-1.4-5.9-1.4-9c0-0.2,0-0.4,0-0.6c0-0.8,0-1.7,0.1-2.5L0.8,42.7z"/>
	</g>
	<g opacity="0.85">
		<g>
			<polygon fill-rule="evenodd" clip-rule="evenodd" fill="#FFFF00" points="75.7,0 77,4.2 81.4,4.2 77.9,6.8 79.2,11 75.7,8.4 
				72.1,11 73.4,6.8 69.9,4.2 74.3,4.2 			"/>
			<path fill="#996600" d="M79.2,11C79.2,11,79.2,11,79.2,11l-3.5-2.5L72.1,11c0,0,0,0-0.1,0c0,0,0,0,0-0.1l1.3-4.1l-3.5-2.6
				c0,0,0,0,0-0.1c0,0,0,0,0,0l4.3,0L75.6,0c0,0,0.1,0,0.1,0l1.4,4.1l4.3,0c0,0,0,0,0,0c0,0,0,0,0,0.1L78,6.8L79.2,11
				C79.3,11,79.2,11,79.2,11C79.2,11,79.2,11,79.2,11z M75.7,8.4C75.7,8.4,75.7,8.4,75.7,8.4l3.5,2.5l-1.3-4c0,0,0,0,0-0.1l3.4-2.5
				l-4.2,0c0,0,0,0,0,0l-1.3-4l-1.3,4c0,0,0,0,0,0l-4.2,0l3.4,2.5c0,0,0,0,0,0.1l-1.3,4L75.7,8.4C75.6,8.4,75.7,8.4,75.7,8.4z"/>
		</g>
	</g>
	<g opacity="0.85">
		<g>
			<polygon fill-rule="evenodd" clip-rule="evenodd" fill="#FFFF00" points="75.5,58.1 76.9,62.2 81.2,62.2 77.7,64.8 79,69 
				75.5,66.5 71.9,69 73.2,64.8 69.7,62.2 74.1,62.2 			"/>
			<path fill="#996600" d="M79,69C79,69,79,69,79,69l-3.5-2.5L72,69c0,0,0,0-0.1,0c0,0,0,0,0-0.1l1.3-4.1l-3.5-2.6c0,0,0,0,0-0.1
				c0,0,0,0,0,0l4.3,0l1.4-4.1c0,0,0.1,0,0.1,0l1.4,4.1l4.3,0c0,0,0,0,0,0c0,0,0,0,0,0.1l-3.5,2.6L79,69C79.1,69,79.1,69,79,69
				C79,69,79,69,79,69z M75.5,66.4C75.5,66.4,75.5,66.4,75.5,66.4l3.5,2.5l-1.3-4c0,0,0,0,0-0.1l3.4-2.5l-4.2,0c0,0,0,0,0,0l-1.3-4
				l-1.3,4c0,0,0,0,0,0l-4.2,0l3.4,2.5c0,0,0,0,0,0.1l-1.3,4L75.5,66.4C75.5,66.4,75.5,66.4,75.5,66.4z"/>
		</g>
	</g>
	<g opacity="0.85">
		<g>
			<polygon fill-rule="evenodd" clip-rule="evenodd" fill="#FFFF00" points="59.9,53 61.3,57.1 65.7,57.1 62.2,59.7 63.5,63.9 
				59.9,61.3 56.4,63.9 57.7,59.7 54.2,57.1 58.6,57.1 			"/>
			<path fill="#996600" d="M63.5,63.9C63.5,63.9,63.5,63.9,63.5,63.9l-3.5-2.5l-3.5,2.5c0,0,0,0-0.1,0c0,0,0,0,0-0.1l1.3-4.1
				l-3.5-2.6c0,0,0,0,0-0.1c0,0,0,0,0,0l4.3,0l1.4-4.1c0,0,0.1,0,0.1,0l1.4,4.1l4.3,0c0,0,0,0,0,0c0,0,0,0,0,0.1l-3.5,2.6L63.5,63.9
				C63.5,63.9,63.5,63.9,63.5,63.9C63.5,63.9,63.5,63.9,63.5,63.9z M59.9,61.3C59.9,61.3,60,61.3,59.9,61.3l3.5,2.5l-1.3-4
				c0,0,0,0,0-0.1l3.4-2.5l-4.2,0c0,0,0,0,0,0l-1.3-4l-1.3,4c0,0,0,0,0,0l-4.2,0l3.4,2.5c0,0,0,0,0,0.1l-1.3,4L59.9,61.3
				C59.9,61.3,59.9,61.3,59.9,61.3z"/>
		</g>
	</g>
	<g opacity="0.85">
		<g>
			<polygon fill-rule="evenodd" clip-rule="evenodd" fill="#FFFF00" points="49.4,41.8 50.8,45.9 55.2,46 51.7,48.6 53,52.7 
				49.4,50.2 45.9,52.7 47.2,48.6 43.7,46 48,45.9 			"/>
			<path fill="#996600" d="M53,52.8C53,52.8,53,52.8,53,52.8l-3.5-2.5l-3.5,2.5c0,0,0,0-0.1,0c0,0,0,0,0-0.1l1.3-4.1L43.7,46
				c0,0,0,0,0-0.1c0,0,0,0,0,0l4.3,0l1.4-4.1c0,0,0.1,0,0.1,0l1.4,4.1l4.3,0c0,0,0,0,0,0c0,0,0,0,0,0.1l-3.5,2.6L53,52.8
				C53,52.7,53,52.7,53,52.8C53,52.8,53,52.8,53,52.8z M43.8,46l3.4,2.5c0,0,0,0,0,0.1l-1.3,4l3.4-2.4c0,0,0,0,0.1,0l3.4,2.4l-1.3-4
				c0,0,0,0,0-0.1L55,46l-4.2,0c0,0,0,0,0,0l-1.3-4l-1.3,4c0,0,0,0,0,0L43.8,46z"/>
		</g>
	</g>
	<g opacity="0.85">
		<g>
			<polygon fill-rule="evenodd" clip-rule="evenodd" fill="#FFFF00" points="46,28.7 47.4,32.8 51.8,32.8 48.3,35.4 49.6,39.6 
				46,37 42.5,39.6 43.8,35.4 40.3,32.8 44.7,32.8 			"/>
			<path fill="#996600" d="M49.6,39.6C49.6,39.6,49.6,39.6,49.6,39.6L46,37.1l-3.5,2.5c0,0,0,0-0.1,0c0,0,0,0,0-0.1l1.3-4.1
				l-3.5-2.6c0,0,0,0,0-0.1c0,0,0,0,0,0l4.3,0l1.4-4.1c0,0,0.1,0,0.1,0l1.4,4.1l4.3,0c0,0,0,0,0,0c0,0,0,0,0,0.1l-3.5,2.6L49.6,39.6
				C49.6,39.6,49.6,39.6,49.6,39.6C49.6,39.6,49.6,39.6,49.6,39.6z M46,37C46.1,37,46.1,37,46,37l3.5,2.5l-1.3-4c0,0,0,0,0-0.1
				l3.4-2.5l-4.2,0c0,0,0,0,0,0l-1.3-4l-1.3,4c0,0,0,0,0,0l-4.2,0l3.4,2.5c0,0,0,0,0,0.1l-1.3,4L46,37C46,37,46,37,46,37z"/>
		</g>
	</g>
	<g opacity="0.85">
		<g>
			<polygon fill-rule="evenodd" clip-rule="evenodd" fill="#FFFF00" points="50.1,14 51.5,18.2 55.8,18.2 52.3,20.8 53.6,24.9 
				50.1,22.4 46.5,24.9 47.8,20.8 44.3,18.2 48.7,18.2 			"/>
			<path fill="#996600" d="M53.6,25C53.6,25,53.6,25,53.6,25l-3.5-2.5L46.5,25c0,0,0,0-0.1,0c0,0,0,0,0-0.1l1.3-4.1l-3.5-2.6
				c0,0,0,0,0-0.1c0,0,0,0,0,0l4.3,0L50,14c0,0,0.1,0,0.1,0l1.4,4.1l4.3,0c0,0,0,0,0,0c0,0,0,0,0,0.1l-3.5,2.6L53.6,25
				C53.7,24.9,53.7,25,53.6,25C53.6,25,53.6,25,53.6,25z M50.1,22.4C50.1,22.4,50.1,22.4,50.1,22.4l3.5,2.5l-1.3-4c0,0,0,0,0-0.1
				l3.4-2.5l-4.2,0c0,0,0,0,0,0l-1.3-4l-1.3,4c0,0,0,0,0,0l-4.2,0l3.4,2.5c0,0,0,0,0,0.1l-1.3,4L50.1,22.4
				C50,22.4,50.1,22.4,50.1,22.4z"/>
		</g>
	</g>
	<g opacity="0.85">
		<g>
			<polygon fill-rule="evenodd" clip-rule="evenodd" fill="#FFFF00" points="61.1,3.4 62.5,7.6 66.9,7.6 63.4,10.2 64.7,14.3 
				61.1,11.8 57.6,14.3 58.9,10.2 55.4,7.6 59.7,7.6 			"/>
			<path fill="#996600" d="M64.7,14.4C64.7,14.4,64.7,14.4,64.7,14.4l-3.5-2.5l-3.5,2.5c0,0,0,0-0.1,0c0,0,0,0,0-0.1l1.3-4.1
				l-3.5-2.6c0,0,0,0,0-0.1c0,0,0,0,0,0l4.3,0l1.4-4.1c0,0,0.1,0,0.1,0l1.4,4.1l4.3,0c0,0,0,0,0,0c0,0,0,0,0,0.1l-3.5,2.6L64.7,14.4
				C64.7,14.3,64.7,14.4,64.7,14.4C64.7,14.4,64.7,14.4,64.7,14.4z M61.1,11.8C61.1,11.8,61.1,11.8,61.1,11.8l3.5,2.5l-1.3-4
				c0,0,0,0,0-0.1l3.4-2.5l-4.2,0c0,0,0,0,0,0l-1.3-4l-1.3,4c0,0,0,0,0,0l-4.2,0l3.4,2.5c0,0,0,0,0,0.1l-1.3,4L61.1,11.8
				C61.1,11.8,61.1,11.8,61.1,11.8z"/>
		</g>
	</g>
	<g opacity="0.85">
		<g>
			<polygon fill-rule="evenodd" clip-rule="evenodd" fill="#FFFF00" points="91,53.1 92.4,57.3 96.8,57.3 93.3,59.9 94.6,64.1 
				91,61.5 87.5,64.1 88.8,59.9 85.3,57.3 89.6,57.3 			"/>
			<path fill="#996600" d="M94.6,64.1C94.6,64.1,94.5,64.1,94.6,64.1L91,61.6l-3.5,2.5c0,0,0,0-0.1,0c0,0,0,0,0-0.1l1.3-4.1
				l-3.5-2.6c0,0,0,0,0-0.1c0,0,0,0,0,0l4.3,0l1.4-4.1c0,0,0,0,0,0l0,0c0,0,0,0,0,0l1.4,4.1l4.3,0c0,0,0,0,0,0c0,0,0,0,0,0.1
				l-3.5,2.6L94.6,64.1C94.6,64.1,94.6,64.1,94.6,64.1C94.6,64.1,94.6,64.1,94.6,64.1z M85.4,57.4l3.4,2.5c0,0,0,0,0,0.1l-1.3,4
				l3.4-2.4c0,0,0,0,0.1,0l3.4,2.4l-1.3-4c0,0,0,0,0-0.1l3.4-2.5l-4.2,0c0,0,0,0,0,0l-1.3-4l-1.3,4c0,0,0,0,0,0L85.4,57.4z"/>
		</g>
	</g>
	<g opacity="0.85">
		<g>
			<polygon fill-rule="evenodd" clip-rule="evenodd" fill="#FFFF00" points="90.1,3.6 91.5,7.7 95.8,7.8 92.3,10.4 93.6,14.5 
				90.1,12 86.6,14.5 87.9,10.4 84.4,7.8 88.7,7.7 			"/>
			<path fill="#996600" d="M93.6,14.6C93.6,14.6,93.6,14.6,93.6,14.6L90.1,12l-3.5,2.5c0,0,0,0-0.1,0c0,0,0,0,0-0.1l1.3-4.1
				l-3.5-2.6c0,0,0,0,0-0.1c0,0,0,0,0,0l4.3,0l1.4-4.1c0,0,0.1,0,0.1,0l1.4,4.1l4.3,0c0,0,0,0,0,0c0,0,0,0,0,0.1l-3.5,2.6L93.6,14.6
				C93.7,14.5,93.7,14.5,93.6,14.6C93.7,14.6,93.7,14.6,93.6,14.6z M90.1,11.9C90.1,11.9,90.1,11.9,90.1,11.9l3.5,2.5l-1.3-4
				c0,0,0,0,0-0.1l3.4-2.5l-4.2,0c0,0,0,0,0,0l-1.3-4l-1.3,4c0,0,0,0,0,0l-4.2,0l3.4,2.5c0,0,0,0,0,0.1l-1.3,4L90.1,11.9
				C90.1,11.9,90.1,11.9,90.1,11.9z"/>
		</g>
	</g>
	<g opacity="0.85">
		<g>
			<polygon fill-rule="evenodd" clip-rule="evenodd" fill="#FFFF00" points="100.9,14.2 102.3,18.3 106.6,18.4 103.1,21 104.4,25.1 
				100.9,22.6 97.3,25.1 98.6,21 95.1,18.4 99.5,18.3 			"/>
			<path fill="#996600" d="M104.4,25.2C104.4,25.2,104.4,25.2,104.4,25.2l-3.5-2.5l-3.5,2.5c0,0,0,0-0.1,0c0,0,0,0,0-0.1l1.3-4.1
				l-3.5-2.6c0,0,0,0,0-0.1c0,0,0,0,0,0l4.3,0l1.4-4.1c0,0,0.1,0,0.1,0l1.4,4.1l4.3,0c0,0,0,0,0,0c0,0,0,0,0,0.1l-3.5,2.6
				L104.4,25.2C104.5,25.1,104.5,25.1,104.4,25.2C104.4,25.2,104.4,25.2,104.4,25.2z M95.3,18.4l3.4,2.5c0,0,0,0,0,0.1l-1.3,4
				l3.4-2.4c0,0,0,0,0.1,0l3.4,2.4l-1.3-4c0,0,0,0,0-0.1l3.4-2.5l-4.2,0c0,0,0,0,0,0l-1.3-4l-1.3,4c0,0,0,0,0,0L95.3,18.4z"/>
		</g>
	</g>
	<g opacity="0.85">
		<g>
			<polygon fill-rule="evenodd" clip-rule="evenodd" fill="#FFFF00" points="105.2,28.8 106.6,33 110.9,33 107.4,35.6 108.7,39.7 
				105.2,37.2 101.6,39.7 102.9,35.6 99.4,33 103.8,33 			"/>
			<path fill="#996600" d="M101.6,39.8C101.6,39.8,101.6,39.8,101.6,39.8C101.6,39.8,101.6,39.8,101.6,39.8l1.3-4.2L99.4,33
				c0,0,0,0,0-0.1c0,0,0,0,0,0l4.3,0l1.4-4.1c0,0,0,0,0,0l0,0c0,0,0,0,0,0l1.4,4.1l4.3,0c0,0,0,0,0,0c0,0,0,0,0,0.1l-3.5,2.6
				l1.3,4.1c0,0,0,0,0,0.1c0,0,0,0-0.1,0l-3.5-2.5L101.6,39.8C101.7,39.8,101.6,39.8,101.6,39.8z M99.6,33l3.4,2.5c0,0,0,0,0,0.1
				l-1.3,4l3.4-2.4c0,0,0,0,0.1,0l3.4,2.4l-1.3-4c0,0,0,0,0-0.1l3.4-2.5l-4.2,0c0,0,0,0,0,0l-1.3-4l-1.3,4c0,0,0,0,0,0L99.6,33z"/>
		</g>
	</g>
	<g opacity="0.85">
		<g>
			<polygon fill-rule="evenodd" clip-rule="evenodd" fill="#FFFF00" points="101.7,42.1 103.1,46.2 107.4,46.3 103.9,48.8 105.3,53 
				101.7,50.5 98.2,53 99.5,48.8 96,46.3 100.3,46.2 			"/>
			<path fill="#996600" d="M105.3,53C105.2,53,105.2,53,105.3,53l-3.5-2.5L98.2,53c0,0,0,0-0.1,0c0,0,0,0,0-0.1l1.3-4.1l-3.5-2.6
				c0,0,0,0,0-0.1c0,0,0,0,0,0l4.3,0l1.4-4.1c0,0,0.1,0,0.1,0l1.4,4.1l4.3,0c0,0,0,0,0,0c0,0,0,0,0,0.1l-3.5,2.6L105.3,53
				C105.3,53,105.3,53,105.3,53C105.3,53,105.3,53,105.3,53z M101.7,50.4C101.7,50.4,101.7,50.4,101.7,50.4l3.5,2.5l-1.3-4
				c0,0,0,0,0-0.1l3.4-2.5l-4.2,0c0,0,0,0,0,0l-1.3-4l-1.3,4c0,0,0,0,0,0l-4.2,0l3.4,2.5c0,0,0,0,0,0.1l-1.3,4L101.7,50.4
				C101.7,50.4,101.7,50.4,101.7,50.4z"/>
		</g>
	</g>
	<text transform="matrix(1 0 0 1 112.5421 58.0382)" font-family="'OfficinaSerif-Bold'" font-size="20">EUROMOD</text>
</g>
</svg>
