<?xml version="1.0" encoding="utf-8"?>
<!-- Generator: Adobe Illustrator 18.1.1, SVG Export Plug-In . SVG Version: 6.00 Build 0)  -->
<!DOCTYPE svg PUBLIC "-//W3C//DTD SVG 1.1//EN" "http://www.w3.org/Graphics/SVG/1.1/DTD/svg11.dtd">
<svg version="1.1" id="Layer_1" xmlns="http://www.w3.org/2000/svg" xmlns:xlink="http://www.w3.org/1999/xlink" x="0px" y="0px"
	 viewBox="-110 138.2 722 515.7" enable-background="new -110 138.2 722 515.7" xml:space="preserve">
<g>
	<path fill="#A0A0A0" d="M106.5,248.7c-30.4,0-55.3-24.8-55.3-55.3c0.5-30.4,25.4-55.3,55.3-55.3c30.4,0,55.3,24.8,55.3,55.3
		C161.7,223.4,136.9,248.7,106.5,248.7z"/>
	<rect x="55.8" y="263.9" fill="#A0A0A0" width="103.9" height="353.9"/>
</g>
<g>
	<path fill="#FFFFFF" d="M289.5,453.5c-17.7-17.2-35.5-21.8-49.7-21.8c-19.3,0-33.5,10.1-33.5,24.8c0,40.6,91.3,40.1,91.3,107
		c0,33-24.8,57.3-59.3,57.3c-22.8,0-41.6-6.1-59.3-19.3v-38.5c15.2,19.8,35,30.4,55.8,30.4c23.3,0,34.5-14.7,34.5-26.4
		c0-43.6-91.3-48.7-91.3-106.5c0-34.5,25.4-56.3,63.9-56.3c16.2,0,31.9,5.1,47.2,14.7v34.5H289.5z"/>
	<path fill="#FFFFFF" d="M432,434.8h-89.2v63.4H429v27.4h-86.2V591H435v27.4H312.3V407.4H432V434.8z"/>
	<path fill="#FFFFFF" d="M502,407.4c42.6,0,69.5,22.8,69.5,59.3c0,24.3-12.7,42.6-35.5,51.7c19.3,12.7,30.9,31.9,47.2,58.3
		c9.1,14.7,14.2,21.8,28.9,41.6h-36l-27.9-43.1c-27.9-43.1-40.6-48.2-55.8-48.2h-12.7v91.8h-30.4V407.4H502z M479.2,499.7h19.3
		c32.5,0,41.6-16.7,41.6-34.5c-0.5-19.8-12.2-31.9-41.6-31.9h-19.3V499.7z"/>
</g>
<g>
	<path fill="#FFFFFF" d="M121.2,389.7c-15.2,0-27.4-12.7-27.4-27.4c0-15.2,12.7-27.4,27.4-27.4c15.2,0,27.4,12.7,27.4,27.4
		S135.9,389.7,121.2,389.7z"/>
	<rect x="97.9" y="407.4" fill="#FFFFFF" width="47.2" height="211.9"/>
</g>
<g>
	<path fill="#CECECE" d="M35.5,357.7C16.2,357.7,0,341.5,0,322.2s16.2-35.5,35.5-35.5S71,303,71,322.2C71,342,54.8,357.7,35.5,357.7
		z"/>
	<rect x="5.1" y="381" fill="#CECECE" width="60.8" height="272.8"/>
</g>
</svg>
