<?xml version="1.0" encoding="utf-8"?>
<!-- Generator: Adobe Illustrator 18.0.0, SVG Export Plug-In . SVG Version: 6.00 Build 0)  -->
<!DOCTYPE svg PUBLIC "-//W3C//DTD SVG 1.1//EN" "http://www.w3.org/Graphics/SVG/1.1/DTD/svg11.dtd">
<svg version="1.1" xmlns="http://www.w3.org/2000/svg" xmlns:xlink="http://www.w3.org/1999/xlink" x="0px" y="0px"
	 viewBox="0 0 612 792" enable-background="new 0 0 612 792" xml:space="preserve">
<g id="Layer_1" display="none">
	<g display="inline">
		<path d="M202.8,381.6v-23.2c0-1.3-1.1-2.3-2.3-2.3c-1.3,0-2.3,1.1-2.3,2.3v23c0,4.5-2.1,8.5-8.2,8.5s-8.2-4-8.2-8.5v-23
			c0-1.3-1-2.3-2.3-2.3c-1.3,0-2.3,1-2.3,2.3v23.2c0,6.8,4,12.4,12.7,12.4C198.7,394,202.8,388.4,202.8,381.6"/>
		<path d="M226.9,391.6v-14.7c0-5.2-1.8-9.3-8.3-9.3c-3.5,0-6.1,1.1-7.9,3.1c-0.3-0.6-0.6-1.1-1.1-1.7c-0.8-0.7-2-1.1-2.8-1.1
			c-1.3,0-2.1,0.6-2.1,2c0,0.7,0.3,1.1,0.8,1.4c1,0.6,1.6,1.1,1.6,3.2v17.1c0,1.3,1,2.3,2.3,2.3c1.3,0,2.3-1,2.3-2.3v-16.5
			c1.1-2,3.2-3.2,6.1-3.2c4,0,4.8,2.3,4.8,5.5v14.3c0,1.3,1,2.3,2.3,2.3C225.9,393.9,226.9,392.9,226.9,391.6"/>
		<path d="M245.3,387.8c-1.7,1.4-3.5,2.1-5.2,2.1c-4.1,0-5.5-2.1-5.5-6.1v-5.5c0-4.4,1.6-6.8,5.5-6.8c1.6,0,3.7,0.7,5.2,2.3V387.8z
			 M251.9,391.9c0-0.7-0.3-1.1-0.8-1.4c-1-0.6-1.4-1.1-1.4-3.2V359c0-1.3-1-2.1-2.3-2.1c-1.3,0-2.3,1-2.3,2.1v10.6
			c-1.8-1.4-4.1-2-6.1-2c-6.8,0-9.2,4.5-9.2,11.3v4.7c0,6.5,2.8,10.2,9.5,10.2c2.3,0,4.7-0.7,6.6-2.3c0.3,0.4,0.6,0.8,1,1.1
			c0.8,0.7,1.8,1.1,2.7,1.1C251.1,393.9,251.9,393.2,251.9,391.9"/>
		<path d="M268.3,378.6H257v-0.8c0-4,1.7-6.5,5.6-6.5c4.1,0,5.5,2.5,5.5,6.5v0.8H268.3z M272.5,378.3c0-5.8-2.5-10.6-10-10.6
			c-7.1,0-10,4.9-10,10.7v4.7c0,5.8,2.7,10.7,10,10.7c3,0,5.6-0.6,8-1.8c0.8-0.6,1.3-1.4,0.8-2.4c-0.4-1-1.4-1.6-2.4-1
			c-1.7,0.8-3.4,1.4-6.4,1.4c-4,0-5.8-2.5-5.8-6.6V382h13.8c0.8,0,1.7-0.7,1.7-1.7v-2H272.5z"/>
		<path d="M292.2,370.9c0.3-1,0-2.1-1-2.5c-0.8-0.4-2-0.6-3.4-0.6c-1.8,0-4.8,0.4-7.1,3.5c-0.6-1.4-1.6-2.7-3.4-3.1
			c-0.1,0-0.6,0-0.7,0c-1.3,0-2.3,0.7-2.3,2c0,0.7,0.3,1.1,0.8,1.4c1,0.6,1.6,1.1,1.6,3.2v17.1c0,1.3,1,2.3,2.3,2.3s2.3-1,2.3-2.3
			v-15.4c0.8-4,3.5-4.7,5.6-4.7c1.4,0,2,0.1,2.5,0.3C290.7,372.6,291.7,371.9,292.2,370.9"/>
		<path d="M311.2,386c0-5.4-3.8-6.5-7.3-7.2c-3.4-0.7-6.5-1-6.5-3.8c0-2.1,1.6-3.5,4.7-3.5c2,0,3.4,0.3,5.1,1
			c1.1,0.3,2.1-0.1,2.4-1.1s0-2.1-1.1-2.5c-1.8-0.7-3.7-1.1-6.5-1.1c-4.9,0-8.8,2.7-8.8,7.5c0,4.8,3.2,6.1,6.5,6.8
			c3.5,0.8,7.2,1,7.2,4.1c0,2.3-1.7,4-5.5,4c-2.7,0-4.2-0.4-5.8-1c-1-0.4-2.1,0.1-2.5,1.1c-0.3,1,0,2.1,1.1,2.5
			c2,0.7,3.8,1.1,7.2,1.1C307,393.9,311.2,391.3,311.2,386"/>
		<path d="M328.6,391.5c0-1.1-0.8-2-2-2h-1c-4.1,0-4.9-2-4.9-6.9v-10.7h4.8c1.1,0,2-0.8,2-1.8c0-1.1-0.8-2-2-2h-4.9v-5.2
			c0-1.3-1-2.3-2.3-2.3s-2.3,1-2.3,2.3v5.2h-1.4c-1.1,0-2,0.8-2,2c0,1,0.8,1.8,2,1.8h1.4v10.9c0,6.6,1.8,10.9,8.9,10.9h1.6
			C327.7,393.6,328.6,392.6,328.6,391.5"/>
		<path d="M345.3,385.1c0,3.5-2.1,5.4-5.5,5.4c-4.1,0-5.2-1.8-5.2-4v-0.4c0-2.1,1.1-4,5.4-4h5.4L345.3,385.1L345.3,385.1z
			 M352,391.9c0-0.7-0.3-1.1-0.8-1.4c-1-0.6-1.4-1.1-1.4-3.2v-9.5c0-6.6-2.1-10.2-9.5-10.2c-2.8,0-5.5,0.6-7.5,1.8
			c-2.1,1.4-0.3,4.4,2,3.2c1.3-0.7,2.8-1.3,5.2-1.3c4.2,0,5.2,2,5.2,6.1v1.3h-5.8c-6.5,0-9.3,3.1-9.3,7.3v0.4c0,4.2,2.5,7.5,8.9,7.5
			c2.3,0,5.2-0.6,7.1-2.5c0.1,0.6,0.6,1.1,1,1.6c0.6,0.6,1.7,1.1,2.7,1.1C351,393.9,352,393.2,352,391.9"/>
		<path d="M375.5,391.6v-14.7c0-5.2-1.8-9.3-8.3-9.3c-3.5,0-6.1,1.1-7.9,3.1c-0.3-0.6-0.6-1.1-1.1-1.7c-0.8-0.7-2-1.1-2.8-1.1
			c-1.3,0-2.3,0.6-2.3,2c0,0.7,0.3,1.1,0.8,1.4c1,0.6,1.6,1.1,1.6,3.2v17.1c0,1.3,1,2.3,2.3,2.3s2.3-1,2.3-2.3v-16.5
			c1.1-2,3.2-3.2,6.1-3.2c4,0,4.8,2.3,4.8,5.5v14.3c0,1.3,1,2.3,2.3,2.3C374.5,393.9,375.5,392.9,375.5,391.6"/>
		<path d="M393.5,387.8c-1.7,1.4-3.5,2.1-5.2,2.1c-4.1,0-5.5-2.1-5.5-6.1v-5.5c0-4.4,1.6-6.8,5.5-6.8c1.6,0,3.7,0.7,5.2,2.3V387.8z
			 M400.3,391.9c0-0.7-0.3-1.1-0.8-1.4c-1-0.6-1.4-1.1-1.4-3.2V359c0-1.3-1-2.1-2.3-2.1s-2.3,1-2.3,2.1v10.6c-1.8-1.4-4.1-2-6.1-2
			c-6.8,0-9.2,4.5-9.2,11.3v4.7c0,6.5,2.8,10.2,9.5,10.2c2.3,0,4.8-0.7,6.6-2.3c0.3,0.4,0.6,0.8,1,1.1c0.8,0.7,1.8,1.1,2.7,1.1
			C399.3,393.9,400.3,393.2,400.3,391.9"/>
		<path d="M407.8,391.6v-21.7c0-1.3-1-2.3-2.3-2.3s-2.3,1-2.3,2.3v21.7c0,1.3,1,2.3,2.3,2.3C406.8,393.9,407.8,392.9,407.8,391.6
			 M408.2,359.6c0-1.4-1.1-2.5-2.7-2.5c-1.4,0-2.7,1.1-2.7,2.5c0,1.4,1.1,2.5,2.7,2.5C407,362.3,408.2,361,408.2,359.6"/>
		<path d="M432.9,391.6v-14.7c0-5.2-1.8-9.3-8.3-9.3c-3.5,0-6.1,1.1-7.9,3.1c-0.3-0.6-0.6-1.1-1.1-1.7c-0.8-0.7-2-1.1-2.8-1.1
			c-1.3,0-2.1,0.6-2.1,2c0,0.7,0.3,1.1,0.8,1.4c1,0.6,1.6,1.1,1.6,3.2v17.1c0,1.3,1,2.3,2.3,2.3s2.3-1,2.3-2.3v-16.5
			c1.1-2,3.2-3.2,6.1-3.2c4,0,4.8,2.3,4.8,5.5v14.3c0,1.3,1,2.3,2.3,2.3C432,393.9,432.9,392.9,432.9,391.6"/>
		<path d="M451.9,374.1v12.4c-1.7,1.6-4.1,2.1-5.5,2.1c-4,0-5.2-2.1-5.2-6.2v-4.4c0-4.1,1.6-6.5,5.4-6.5
			C447.9,371.6,450.2,372.1,451.9,374.1 M456.4,369.9c0-1.3-0.8-2.3-2.3-2.3c-1.3,0-2.3,1-2.3,2.3l0,0c-2-1.6-4.2-2.3-6.2-2.3
			c-6.6,0-9,4.4-9,10.9v3.4c0,6.5,2.3,10.6,8.9,10.6c1.8,0,4.4-0.7,6.4-2v1.4c0,4.4-1.7,7.2-6.1,7.2c-3,0-4.2-0.7-5.8-1.1
			c-1.3-0.3-2.3,0.7-2.3,1.8c0,0.8,0.6,1.4,1.3,1.8c2,0.8,4.5,1.3,6.9,1.3c7.5,0,10.3-4.8,10.3-11.2v-21.9H456.4z"/>
		<g>
			<path d="M497.6,382.6c0-3.5-1.3-5.9-3.7-7.5c-2.8-1.8-7.6-2.1-11-3.1c-3.1-0.8-5.1-2.1-5.1-5.4c0-3.8,2.8-6.2,7.6-6.2
				c1.7,0,2.8,0.1,3.8,0.4c2.1,0.4,3,1.1,3.7,1.1c1.3,0,2.1-1.1,2.1-2.1c0-0.8-0.4-1.6-1.6-2c-2.5-1.1-5.2-1.4-8.5-1.4
				c-6.8,0-12,4-12,10.9c0,4.2,1.8,6.5,4.5,7.9c2.8,1.4,7.5,1.8,10.3,2.7c3.4,1,4.9,2.4,4.9,5.5c0,4-2.8,6.8-9,6.8
				c-1.8,0-3.4-0.1-4.5-0.4c-2.5-0.6-3.4-1.3-4.4-1.3c-1.3,0-2,1.1-2,2.1c0,0.8,0.4,1.7,1.4,2.1c3,1.1,5.9,1.6,9.7,1.6
				C492.4,394,497.6,389.9,497.6,382.6"/>
			<path d="M516.3,383.3c0,4-1.7,6.5-5.8,6.5c-4.1,0-5.8-2.5-5.8-6.5v-5.2c0-4,1.7-6.4,5.8-6.4c4.1,0,5.8,2.5,5.8,6.4V383.3z
				 M520.8,383.3v-5.2c0-5.8-3-10.4-10.3-10.4c-7.2,0-10.3,4.7-10.3,10.4v5.2c0,5.8,3,10.4,10.3,10.4
				C517.8,393.9,520.8,389.1,520.8,383.3"/>
			<path d="M540.5,389.9c-0.4-1-1.4-1.4-2.4-0.8c-1.6,0.7-3.1,1-4.7,1c-4,0-5.8-2.7-5.8-7.2v-4.1c0-4.4,2.1-7.2,5.9-7.2
				c1.8,0,3.1,0.4,4.4,1c1,0.4,2,0,2.4-0.8c0.6-1,0.1-2-0.8-2.5c-1.8-1.1-4.2-1.4-6.4-1.4c-6.8,0-10.2,5.2-10.2,11.4v3.5
				c0,6.5,3,11.3,10.2,11.3c2.1,0,4.4-0.4,6.4-1.4C540.5,391.9,541,390.9,540.5,389.9"/>
			<path d="M548.3,391.6v-21.7c0-1.3-1-2.3-2.3-2.3s-2.3,1-2.3,2.3v21.7c0,1.3,1,2.3,2.3,2.3S548.3,392.9,548.3,391.6 M548.7,359.6
				c0-1.4-1.1-2.5-2.7-2.5c-1.4,0-2.7,1.1-2.7,2.5c0,1.4,1.1,2.5,2.7,2.5C547.5,362.3,548.7,361,548.7,359.6"/>
			<path d="M567.2,378.6h-11.3v-0.8c0-4,1.7-6.5,5.6-6.5c4.1,0,5.5,2.5,5.5,6.5v0.8H567.2z M571.6,378.3c0-5.8-2.5-10.6-10-10.6
				c-7.1,0-10,4.9-10,10.7v4.7c0,5.8,2.7,10.7,10,10.7c3,0,5.6-0.6,8-1.8c1-0.6,1.3-1.4,0.8-2.4c-0.3-1-1.4-1.6-2.4-1
				c-1.7,0.8-3.4,1.4-6.4,1.4c-4,0-5.8-2.5-5.8-6.6V382h13.8c0.8,0,1.7-0.7,1.7-1.7v-2H571.6z"/>
			<path d="M588.3,391.5c0-1.1-0.8-2-2-2h-1c-4.1,0-4.9-2-4.9-6.9v-10.7h4.7c1.1,0,2-0.8,2-1.8c0-1.1-0.8-2-2-2h-4.7v-5.2
				c0-1.3-1-2.3-2.3-2.3s-2.3,1-2.3,2.3v5.2h-1.4c-1.1,0-2,0.8-2,2c0,1,0.8,1.8,2,1.8h1.4v10.9c0,6.6,1.8,10.9,8.9,10.9h1.6
				C587.4,393.6,588.3,392.6,588.3,391.5"/>
			<path d="M611.6,370.6c0.6-1.7-0.7-3-2.1-3c-0.8,0-1.7,0.4-2,1.4l-6.4,18.6c-2.7-6.9-4.9-13.4-6.6-18.6c-0.3-1.1-1.1-1.6-2-1.6
				c-1.3,0-2.7,1.1-2.1,2.7c2,6.1,5.1,14.7,8.5,22.9c-2.1,4-4.4,5.1-7.2,5.2c-1.4,0-2.1,1.1-2.1,2.1c0,1.1,0.8,2.3,2.4,2.1
				c6.2-0.3,9.6-4.2,12.6-12.9L611.6,370.6z"/>
		</g>
	</g>
	<path display="inline" fill="#E5004B" d="M153.5,275C95.3,273.6,36,310.7,34.6,388.2C33.2,465.3,90.8,505.3,149,506.7
		c40.4,1,81.3-16.7,103.1-53.7h0.1c-22.2,34.2-64.7,50.4-103.1,49.6c-56.5-1.4-111.8-40-110.4-114.2
		c1.4-74.7,58.3-110.7,114.7-109.3c40.8,1,82.2,21.5,101.7,61h0.3C236.4,297.9,196.3,276,153.5,275z"/>
	<path display="inline" fill="#7BBB58" d="M137.4,292.4c-58.2-1.4-117.3,35.9-118.9,113.4c-1.4,77.1,56.3,117.1,114.4,118.5
		c41.1,1,82.6-17.2,104.1-55.4h-0.3c3.1-5.2,5.5-11,7.5-17.1l0,0c-17.9,46.9-66.2,69.3-111.1,68.2c-56.5-1.4-111.8-40-110.4-114.2
		C24,331,80.9,295,137.3,296.4c33.6,0.8,67.8,14.8,89.7,41.9h0.4C205.5,308.6,173.1,293.2,137.4,292.4z"/>
	<path display="inline" fill="#FDC600" d="M118.9,278.8C60.7,277.4,1.6,314.7,0,392.2c-1.4,77.1,56.3,117.1,114.4,118.5
		c42.4,1,85.1-18.4,106-58.9h-0.3c-21.3,37.7-65.2,55.8-105.5,54.8c-56.5-1.4-111.8-40-110.4-114.2C5.6,317.6,62.4,282.5,118.9,283
		c38.8,0.3,69.9,14.1,98.3,56.3v-0.1C196,301.2,159.8,279.8,118.9,278.8z"/>
	<path display="inline" fill="#5C99CC" d="M135.4,267.9c-58.2-1.4-117.5,35.9-118.9,113.4c-1.4,77.1,56.2,117.1,114.4,118.5
		c37.7,0.8,75.8-14.4,98.4-46.5H229c-22.9,29.2-62.4,43.2-98,42.4c-56.5-1.4-111.8-40-110.4-114.2C22,306.6,78.8,270.7,135.3,272
		c43.4,1,88,24.1,105.8,68.5l0,0C224,293.5,180.6,269.1,135.4,267.9z"/>
	<path display="inline" fill="#59772B" d="M78.7,284.2c-7.5,2.3-14.8,5.2-21.7,9c-5.9,4.8-11.4,10.3-16.4,16.4
		c5.4-4.5,11.2-8.5,17.4-11.9C64.3,292.4,71.3,287.8,78.7,284.2z M192.9,485.4c3.2-2.5,6.4-5.4,9.3-8.3c-2.7,1.7-5.4,3.1-8.2,4.5
		c-5.5,4.2-11.3,7.9-17.5,11C182.2,490.6,187.7,488.2,192.9,485.4z"/>
	<path display="inline" fill="#E41913" d="M118.6,278.8c-5.1,1.3-10,3-15,4.8c5.1-0.6,10.2-0.8,15.3-0.7h0.1
		c4.8-1.3,9.6-2.3,14.5-2.8c-4.8-0.7-9.7-1.1-14.7-1.3H118.6z M134.1,505.6c4.9,0.7,9.9,1.1,14.8,1.3h0.3c4.8-1.3,9.6-2.7,14.3-4.5
		c-4.7,0.4-9.3,0.6-14,0.4C144.5,503.9,139.4,504.9,134.1,505.6z"/>
	<path display="inline" fill="#702319" d="M56.1,319.9c-3.4,4.7-6.5,9.7-9.3,15.3c3.8-4.5,7.9-8.8,12.3-12.4
		c3.5-4.8,7.5-9.3,11.7-13.4C65.7,312.4,60.7,315.9,56.1,319.9z M233.7,474.1c-1.3,1.1-2.7,2.3-4.1,3.2c-1.8,2.4-4,4.8-6.1,7.1
		c2.3-1.7,4.5-3.4,6.6-5.2C231.4,477.5,232.7,475.8,233.7,474.1z"/>
	<path display="inline" fill="#699D2F" d="M193.2,310.7c1.8,1,3.5,2,5.4,3c-2.7-2.8-5.5-5.5-8.5-8c-2.4-1.3-4.9-2.5-7.5-3.7
		C186.1,304.6,189.6,307.6,193.2,310.7z M54.2,494c5.9,3.4,12.1,6.4,18.5,8.8c-5.6-3.5-11.2-7.5-16.1-12
		c-5.5-3.1-10.7-6.8-15.5-10.9C45,485,49.4,489.6,54.2,494z"/>
	<path display="inline" fill="#267041" d="M18.5,407.6c1.3,7.2,3.1,14,5.5,20.3c-1-6.5-1.4-13.4-1.4-20.8c-1.3-7.3-2-15.1-2-23.3
		c-1.3,6.9-2,14.1-2.1,21.7C18.5,406.3,18.5,407,18.5,407.6z"/>
	<path display="inline" fill="#5E1E38" d="M75.8,481.3c6.5,5.1,13.6,9.5,21,13c8.6,2.5,17.4,4.2,26.3,4.9c-8.6-2-16.9-4.9-24.9-8.8
		C90.5,488.2,83,485.2,75.8,481.3z M187.7,284.6c5.9,1.8,11.6,4,17.1,6.6c-5.6-4.2-11.7-7.9-18.1-11c-8.2-2.4-16.7-4.1-25.3-4.8
		C170.4,277.5,179.3,280.5,187.7,284.6z"/>
	<g display="inline">
		<path fill="#706F6F" d="M187.2,418.7H183v13.4c0,0.6-0.4,1-1,1c-0.6,0-1-0.4-1-1v-13.4h-4.2c-0.6,0-1-0.4-1-1c0-0.6,0.4-1,1-1
			h10.3c0.6,0,1,0.4,1,1C188.1,418.3,187.7,418.7,187.2,418.7z"/>
		<path fill="#706F6F" d="M200.9,433.1c-0.6,0-1-0.4-1-1v-6.2h-7.3v6.2c0,0.6-0.4,1-1,1c-0.6,0-1-0.4-1-1v-14.5c0-0.6,0.4-1,1-1
			c0.6,0,1,0.4,1,1v6.5h7.3v-6.5c0-0.6,0.4-1,1-1c0.6,0,1,0.4,1,1v14.5C201.9,432.7,201.5,433.1,200.9,433.1z"/>
		<path fill="#706F6F" d="M214.6,432.9H207c-0.6,0-1-0.4-1-1v-14.1c0-0.6,0.4-1,1-1h7.3c0.6,0,1,0.4,1,1c0,0.6-0.4,1-1,1H208v5.2
			h5.8c0.6,0,0.8,0.4,0.8,1c0,0.6-0.4,1-0.8,1H208v5.2h6.6c0.6,0,1,0.4,1,1S215.1,432.9,214.6,432.9z"/>
		<path fill="#706F6F" d="M230.7,433.1c-3.8,0-5.5-2.4-5.5-5.4v-10.2c0-0.6,0.4-1,1-1c0.6,0,1,0.4,1,1v10c0,2,1,3.7,3.5,3.7
			s3.5-1.7,3.5-3.7v-10c0-0.6,0.4-1,1-1c0.6,0,1,0.4,1,1v10C236.2,430.6,234.5,433.1,230.7,433.1z"/>
		<path fill="#706F6F" d="M249.4,433.1c-0.3,0-0.7-0.1-0.8-0.6c-1.4-2.5-3-4.9-4.7-7.3l-1.8,2.3v4.7c0,0.6-0.4,1-1,1
			c-0.6,0-1-0.4-1-1v-14.5c0-0.6,0.4-1,1-1c0.6,0,1,0.4,1,1v7.1l6.2-7.8c0.1-0.3,0.4-0.4,0.7-0.4s0.4,0.1,0.6,0.3
			c0.4,0.3,0.4,1,0.1,1.4l-4.5,5.4c1.8,2.5,3.5,5.2,5.1,8C250.6,432.4,249.9,433.1,249.4,433.1z"/>
		<path fill="#706F6F" d="M269.7,433.1c-0.6,0-1-0.4-1-1v-6.2h-7.3v6.2c0,0.6-0.4,1-1,1c-0.6,0-1-0.4-1-1v-14.5c0-0.6,0.4-1,1-1
			c0.6,0,1,0.4,1,1v6.5h7.3v-6.5c0-0.6,0.4-1,1-1c0.6,0,1,0.4,1,1v14.5C270.7,432.7,270.3,433.1,269.7,433.1z"/>
		<path fill="#706F6F" d="M280,433.1c-4.1,0-5.5-3-5.5-5.9v-4.5c0-3,1.4-5.9,5.5-5.9c4.1,0,5.5,3,5.5,5.9v4.5
			C285.5,430.2,284.1,433.1,280,433.1z M283.5,422.5c0-2.3-0.8-4.1-3.5-4.1c-2.7,0-3.5,1.8-3.5,4.1v4.5c0,2.3,0.8,4.1,3.5,4.1
			c2.7,0,3.5-1.8,3.5-4.1V422.5z"/>
		<path fill="#706F6F" d="M294.4,433.1c-3.8,0-5.5-2.4-5.5-5.4v-10.2c0-0.6,0.4-1,1-1s1,0.4,1,1v10c0,2,1,3.7,3.5,3.7
			c2.5,0,3.5-1.7,3.5-3.7v-10c0-0.6,0.4-1,1-1s1,0.4,1,1v10C299.9,430.6,298.2,433.1,294.4,433.1z"/>
		<path fill="#706F6F" d="M307.8,433.1c-1.7,0-3-0.1-4.2-0.7c-0.4-0.1-0.7-0.6-0.7-0.8c0-0.4,0.4-1,0.8-1c0.4,0,0.7,0.3,1.8,0.6
			c0.6,0.1,1.1,0.1,2,0.1c2.7,0,4-1.3,4-3c0-1.4-0.7-2-2.1-2.4c-1.1-0.3-3.2-0.6-4.5-1.1c-1.1-0.6-2-1.6-2-3.4c0-3,2.3-4.8,5.2-4.8
			c1.4,0,2.5,0.1,3.7,0.6c0.4,0.1,0.7,0.6,0.7,0.8c0,0.4-0.4,1-1,1c-0.3,0-0.7-0.3-1.6-0.4c-0.4-0.1-1-0.1-1.7-0.1
			c-2.1,0-3.2,1-3.2,2.7c0,1.4,0.8,2,2.1,2.3c1.4,0.4,3.5,0.6,4.8,1.4c1,0.7,1.6,1.7,1.6,3.2C313.6,431.3,311.4,433.1,307.8,433.1z"
			/>
		<path fill="#706F6F" d="M325.5,432.9h-7.6c-0.6,0-1-0.4-1-1v-14.1c0-0.6,0.4-1,1-1h7.3c0.6,0,1,0.4,1,1c0,0.6-0.4,1-1,1h-6.4v5.2
			h5.8c0.6,0,0.8,0.4,0.8,1c0,0.6-0.4,1-0.8,1h-5.8v5.2h6.6c0.6,0,1,0.4,1,1S326.1,432.9,325.5,432.9z"/>
		<path fill="#706F6F" d="M339.7,433.1c-0.6,0-1-0.4-1-1v-6.2h-7.3v6.2c0,0.6-0.4,1-1,1c-0.6,0-1-0.4-1-1v-14.5c0-0.6,0.4-1,1-1
			c0.6,0,1,0.4,1,1v6.5h7.3v-6.5c0-0.6,0.4-1,1-1s1,0.4,1,1v14.5C340.9,432.7,340.3,433.1,339.7,433.1z"/>
		<path fill="#706F6F" d="M350.1,433.1c-4.1,0-5.5-3-5.5-5.9v-4.5c0-3,1.4-5.9,5.5-5.9c4.1,0,5.5,3,5.5,5.9v4.5
			C355.6,430.2,354.2,433.1,350.1,433.1z M353.6,422.5c0-2.3-0.8-4.1-3.5-4.1c-2.7,0-3.5,1.8-3.5,4.1v4.5c0,2.3,0.8,4.1,3.5,4.1
			c2.7,0,3.5-1.8,3.5-4.1V422.5z"/>
		<path fill="#706F6F" d="M367.8,432.9h-7.6c-0.6,0-1-0.4-1-1v-14.3c0-0.6,0.4-1,1-1s1,0.4,1,1V431h6.6c0.6,0,1,0.4,1,1
			S368.4,432.9,367.8,432.9z"/>
		<path fill="#706F6F" d="M376.6,432.9h-4.2c-0.6,0-1-0.4-1-1v-14.1c0-0.6,0.4-1,1-1h4.2c4.9,0,5.6,3.5,5.6,5.9v4.1
			C382.3,429.3,381.5,432.9,376.6,432.9z M380.3,422.8c0-2.1-0.6-4.1-3.8-4.1h-3.2V431h3.2c3.2,0,3.8-2.1,3.8-4.1V422.8z"/>
		<path fill="#706F6F" d="M401.6,432.9H394c-0.6,0-1-0.4-1-1v-14.3c0-0.6,0.4-1,1-1c0.6,0,1,0.4,1,1V431h6.6c0.6,0,1,0.4,1,1
			S402.2,432.9,401.6,432.9z"/>
		<path fill="#706F6F" d="M409.2,433.1c-4.1,0-5.5-3-5.5-5.9v-4.5c0-3,1.4-5.9,5.5-5.9s5.5,3,5.5,5.9v4.5
			C414.7,430.2,413.3,433.1,409.2,433.1z M412.8,422.5c0-2.3-0.8-4.1-3.5-4.1s-3.5,1.8-3.5,4.1v4.5c0,2.3,0.8,4.1,3.5,4.1
			s3.5-1.8,3.5-4.1V422.5z"/>
		<path fill="#706F6F" d="M428.6,433.1c-0.4,0-0.7-0.1-1-0.4l-7.3-11.9v11.4c0,0.6-0.4,1-1,1c-0.6,0-0.8-0.4-0.8-1v-14.7
			c0-0.6,0.4-1,1-1c0.4,0,0.7,0.1,1,0.6l7.3,11.9v-11.4c0-0.6,0.4-1,1-1c0.6,0,0.8,0.4,0.8,1v14.7
			C429.6,432.7,429.1,433.1,428.6,433.1z"/>
		<path fill="#706F6F" d="M438.9,433c-4.1,0-5.6-2.8-5.6-6.9v-2.5c0-4,1.6-6.9,5.8-6.9c1.4,0,2.8,0.4,3.7,1.4
			c0.3,0.3,0.4,0.4,0.4,0.7c0,0.4-0.3,0.8-1,0.8c-0.3,0-0.6-0.1-0.8-0.4c-0.6-0.4-1.4-0.7-2.3-0.7c-2.5,0-3.8,1.7-3.8,5.2v2.5
			c0,3.5,1.1,5.2,3.7,5.2c2.3,0,3.2-1.4,3.2-3.7v-1.1h-2.7c-0.6,0-1-0.4-1-1c0-0.6,0.4-1,1-1h3.7c0.6,0,1,0.4,1,1v2
			C444.1,430.7,442.5,433,438.9,433z"/>
		<path fill="#706F6F" d="M448.6,433.1c-0.6,0-1-0.4-1-1v-14.5c0-0.6,0.4-1,1-1c0.6,0,1,0.4,1,1v14.5
			C449.6,432.7,449.2,433.1,448.6,433.1z"/>
		<path fill="#706F6F" d="M463.3,418.7h-4.2v13.4c0,0.6-0.4,1-1,1c-0.6,0-1-0.4-1-1v-13.4h-4.2c-0.6,0-1-0.4-1-1c0-0.6,0.4-1,1-1
			h10.3c0.6,0,1,0.4,1,1C464.3,418.3,463.9,418.7,463.3,418.7z"/>
		<path fill="#706F6F" d="M471.8,433.1c-3.8,0-5.5-2.4-5.5-5.4v-10.2c0-0.6,0.4-1,1-1s1,0.4,1,1v10c0,2,1,3.7,3.5,3.7
			s3.5-1.7,3.5-3.7v-10c0-0.6,0.4-1,1-1s1,0.4,1,1v10C477.3,430.6,475.6,433.1,471.8,433.1z"/>
		<path fill="#706F6F" d="M486.3,432.9h-4.2c-0.6,0-1-0.4-1-1v-14.1c0-0.6,0.4-1,1-1h4.2c4.9,0,5.6,3.5,5.6,5.9v4.1
			C492.1,429.3,491.3,432.9,486.3,432.9z M490,422.8c0-2.1-0.6-4.1-3.8-4.1h-3.2V431h3.2c3.2,0,3.8-2.1,3.8-4.1V422.8z"/>
		<path fill="#706F6F" d="M496.8,433.1c-0.6,0-1-0.4-1-1v-14.5c0-0.6,0.4-1,1-1c0.6,0,1,0.4,1,1v14.5
			C497.8,432.7,497.3,433.1,496.8,433.1z"/>
		<path fill="#706F6F" d="M512,433.1c-0.4,0-0.7-0.1-1-0.4l-7.3-11.9v11.4c0,0.6-0.4,1-1,1c-0.6,0-0.8-0.4-0.8-1v-14.7
			c0-0.6,0.4-1,1-1c0.4,0,0.7,0.1,1,0.6l7.3,11.9v-11.4c0-0.6,0.4-1,1-1c0.6,0,0.8,0.4,0.8,1v14.7C513,432.7,512.6,433.1,512,433.1z
			"/>
		<path fill="#706F6F" d="M526.4,433.1c-0.4,0-0.8-0.3-1-0.7c-0.3-1.1-0.6-2.1-0.8-3.1h-6.4c-0.3,1-0.6,2.1-0.8,3.1
			c-0.1,0.6-0.6,0.7-1,0.7c-0.6,0-1.1-0.4-1-1.3c1.3-5.1,2.8-9.6,4.7-14.1c0.4-0.8,0.8-1.1,1.3-1.1c0.4,0,0.8,0.1,1.3,1.1
			c1.8,4.5,3.4,9.2,4.7,14.1C527.6,432.6,527,433.1,526.4,433.1z M521.5,419.9c-1,2.4-1.8,4.9-2.7,7.5h5.4
			C523.3,424.7,522.5,422.3,521.5,419.9z"/>
		<path fill="#706F6F" d="M538.6,432.9h-7.6c-0.6,0-1-0.4-1-1v-14.3c0-0.6,0.4-1,1-1c0.6,0,1,0.4,1,1V431h6.6c0.6,0,1,0.4,1,1
			S539.1,432.9,538.6,432.9z"/>
		<path fill="#706F6F" d="M552.8,433.1c-1.7,0-3-0.1-4.2-0.7c-0.4-0.1-0.7-0.6-0.7-0.8c0-0.4,0.3-1,0.8-1c0.4,0,0.7,0.3,1.8,0.6
			c0.6,0.1,1.1,0.1,2,0.1c2.7,0,4-1.3,4-3c0-1.4-0.7-2-2.1-2.4c-1.1-0.3-3.2-0.6-4.5-1.1c-1.1-0.6-2-1.6-2-3.4c0-3,2.3-4.8,5.2-4.8
			c1.4,0,2.5,0.1,3.7,0.6c0.4,0.1,0.7,0.6,0.7,0.8c0,0.4-0.4,1-1,1c-0.3,0-0.7-0.3-1.6-0.4c-0.4-0.1-1-0.1-1.7-0.1
			c-2.1,0-3.2,1-3.2,2.7c0,1.4,0.8,2,2.1,2.3c1.4,0.4,3.5,0.6,4.8,1.4c1,0.7,1.6,1.7,1.6,3.2C558.5,431.3,556.2,433.1,552.8,433.1z"
			/>
		<path fill="#706F6F" d="M570.8,418.7h-4.2v13.4c0,0.6-0.4,1-1,1c-0.6,0-1-0.4-1-1v-13.4h-4.2c-0.6,0-1-0.4-1-1c0-0.6,0.4-1,1-1
			h10.3c0.6,0,1,0.4,1,1C571.8,418.3,571.3,418.7,570.8,418.7z"/>
		<path fill="#706F6F" d="M579.2,433.1c-3.8,0-5.5-2.4-5.5-5.4v-10.2c0-0.6,0.4-1,1-1c0.6,0,1,0.4,1,1v10c0,2,1,3.7,3.5,3.7
			s3.5-1.7,3.5-3.7v-10c0-0.6,0.4-1,1-1c0.6,0,1,0.4,1,1v10C584.7,430.6,583.1,433.1,579.2,433.1z"/>
		<path fill="#706F6F" d="M593.8,432.9h-4.2c-0.6,0-1-0.4-1-1v-14.1c0-0.6,0.4-1,1-1h4.2c4.9,0,5.6,3.5,5.6,5.9v4.1
			C599.6,429.3,598.7,432.9,593.8,432.9z M597.6,422.8c0-2.1-0.6-4.1-3.8-4.1h-3.2V431h3.2c3.2,0,3.8-2.1,3.8-4.1V422.8z"/>
		<path fill="#706F6F" d="M611.9,417.9c-1.1,2.7-2.5,5.6-4.5,9v5.1c0,0.6-0.4,1-1,1c-0.6,0-1-0.4-1-1v-5.1c-1.8-3.4-3.2-6.4-4.5-9
			c0-0.1-0.1-0.3-0.1-0.4c0-0.6,0.6-1,1-1c0.3,0,0.7,0.1,0.8,0.6c1,2.3,2.1,4.7,3.7,7.6c1.6-2.8,2.7-5.4,3.7-7.6
			c0.1-0.4,0.6-0.6,0.8-0.6c0.6,0,1,0.4,1,1C612,417.7,612,417.9,611.9,417.9z"/>
	</g>
</g>
<g id="Layer_2">
	<g>
		<path fill="#231F20" d="M314.5,339.3h-14.2v10.1H314v4.3h-13.7v10.4h14.6v4.3h-19.4V335h19V339.3z"/>
		<path fill="#231F20" d="M335.9,342.3c-2.8-2.7-5.6-3.5-7.8-3.5c-3.1,0-5.3,1.6-5.3,4c0,6.4,14.5,6.3,14.5,17c0,5.2-4,9.1-9.4,9.1
			c-3.6,0-6.6-1-9.4-3.1v-6.1c2.5,3.1,5.5,4.9,8.8,4.9c3.7,0,5.4-2.4,5.4-4.2c0-6.9-14.5-7.7-14.5-16.9c0-5.4,4-8.9,10.1-8.9
			c2.5,0,5.1,0.8,7.5,2.4V342.3z"/>
		<path fill="#231F20" d="M351,335c6.8,0,11,3.6,11,9.4c0,3.9-2,6.8-5.6,8.2c3,2,4.9,5.1,7.4,9.3c1.4,2.3,2.3,3.4,4.6,6.6h-5.7
			l-4.4-6.9c-4.4-6.9-6.4-7.6-8.9-7.6h-2v14.5h-4.8V335H351z M347.4,349.6h3.1c5.1,0,6.6-2.6,6.6-5.4c0-3.1-1.9-5-6.6-5h-3.1V349.6z
			"/>
		<path fill="#231F20" d="M400.6,342.4c-4.1-2.4-7.6-3.5-11.5-3.5c-7.6,0-13.3,5.4-13.3,12.8c0,7.5,5.5,12.7,13.5,12.7
			c3.8,0,7.9-1.3,11.7-3.8v5.2c-3.3,1.7-6.9,2.9-12.1,2.9c-12.5,0-18-9.7-18-16.7c0-10.2,7.7-17.6,18.3-17.6c3.4,0,6.9,0.8,11.5,2.7
			V342.4z"/>
		<path fill="#231F20" d="M323.6,401.5c0,8.2-4.9,13.6-14.9,13.6c-7.1,0-13.9-4-13.9-13.1v-20.8h4.8v19.8c0,3.8,0.5,5.3,2,6.9
			c1.9,1.9,4.3,2.8,7.2,2.8c3.7,0,6.3-1.2,7.8-2.7c1.7-1.7,2.1-4.2,2.1-7.3v-19.5h4.8V401.5z"/>
		<path fill="#231F20" d="M358.6,414.6H352l-17-16.5v16.5h-4.8v-33.4h4.8v15.3l14.1-15.3h6L340.5,397L358.6,414.6z"/>
		<path fill="#231F20" d="M380.8,410.3h15.1v4.3H376v-33.4h4.8V410.3z"/>
		<path fill="#231F20" d="M421.7,403.4c0,7-4.8,11.7-11.9,11.7c-6.8,0-11.6-4.9-11.6-11.7c0-6.3,5-11.2,11.6-11.2
			C416.7,392.1,421.7,396.9,421.7,403.4z M402.6,403.4c0,4.7,2.9,7.7,7.1,7.7c4.6,0,7.5-2.9,7.5-7.7c0-4.3-3.1-7.4-7.5-7.4
			C405.6,396.1,402.6,399.2,402.6,403.4z"/>
		<path fill="#231F20" d="M430.8,395.5L430.8,395.5c1.8-2.1,4.2-3.3,6.7-3.3c4.2,0,7.5,2.8,7.5,8.9v13.6h-4.4V401
			c0-3.2-1.7-5.3-4.3-5.3c-1.9,0-3.4,0.9-5.5,3.2v15.8h-4.4v-22h4.4V395.5z"/>
		<path fill="#231F20" d="M468.6,396h-4.5c1.7,1.7,2.3,2.9,2.3,4.8c0,1.8-1,3.9-2.1,4.9c-2.9,3.1-8.9,1.6-8.9,4.2
			c0,1.2,2.3,2,6.7,2.8c4.7,0.9,6.4,3.3,6.4,6.1c0,4.4-3.9,7-10.4,7c-5.9,0-10.1-2.8-10.1-6.7c0-3.2,1.7-5.1,5.5-6.1
			c-1.5-0.9-2.2-1.8-2.2-2.8c0-1.4,1.4-2.7,3.5-3.1v-0.1c-1.6-0.7-2.8-1.6-3.7-2.8c-0.8-1.1-1.2-2.5-1.2-4.1c0-4.7,3.7-7.6,9.6-7.6
			h9.1V396z M457.1,415.7c-2.9,0-5,1.4-5,3.3c0,2.2,2.2,3.4,6.1,3.4c3.8,0,6.1-1.2,6.1-3.2C464.3,416.4,459.8,415.7,457.1,415.7z
			 M458.2,396.4c-2.4,0-4.4,1.8-4.4,4c0,2.4,1.8,4,4.4,4c2.4,0,4.2-1.7,4.2-4.1C462.5,398.1,460.5,396.4,458.2,396.4z"/>
		<path fill="#231F20" d="M475,388.5c-1.4,0-2.6-1.2-2.6-2.6c0-1.4,1.2-2.6,2.6-2.6c1.4,0,2.6,1.2,2.6,2.6
			C477.6,387.3,476.4,388.5,475,388.5z M477.2,414.6h-4.4v-22h4.4V414.6z"/>
		<path fill="#231F20" d="M488.5,392.6h7v3.9h-7v11.3c0,2.6,1.9,3.3,3.1,3.3c1.6,0,3.2-0.5,4.9-1.6v4.1c-1.5,0.8-3.9,1.5-5.3,1.5
			c-4.8,0-7.2-2.9-7.2-6.9v-11.6h-3.8V396l8.2-8V392.6z"/>
		<path fill="#231F20" d="M513.7,414.6v-2.8c-1.8,2-4.4,3.2-6.5,3.2c-4.5,0-7.6-3.2-7.6-8.8v-13.7h4.4v14c0,3.1,1.5,4.9,4.5,4.9
			c2,0,3.8-1.1,5.2-3.1v-15.7h4.4v22H513.7z"/>
		<path fill="#231F20" d="M543.3,414.6H534c-6.6,0-10.7-4.5-10.7-11.5c0-6.4,4.6-10.9,11-10.9c1.5,0,2.8,0.2,4.6,0.9v-11.9h4.4
			V414.6z M538.9,396.9c-1.5-0.6-2.6-0.8-4.1-0.8c-4.2,0-7.1,3-7.1,7.6c0,4.1,1.7,7.2,6.7,7.2h4.4V396.9z"/>
		<path fill="#231F20" d="M551.6,388.5c-1.4,0-2.6-1.2-2.6-2.6c0-1.4,1.2-2.6,2.6-2.6c1.4,0,2.6,1.2,2.6,2.6
			C554.2,387.3,553,388.5,551.6,388.5z M553.8,414.6h-4.4v-22h4.4V414.6z"/>
		<path fill="#231F20" d="M564.3,395.5h0.1c1.7-2.1,4.1-3.3,6.6-3.3c4.2,0,7.5,2.8,7.5,8.9v13.6h-4.4V401c0-3.2-1.7-5.3-4.3-5.3
			c-1.9,0-3.4,0.9-5.5,3.2v15.8h-4.4v-22h4.4V395.5z"/>
		<path fill="#231F20" d="M601.6,413.3c-2,1.3-2.8,1.7-4.2,1.7c-1.9,0-2.9-0.7-3.3-2.3c-1.9,1.5-3.9,2.3-5.9,2.3
			c-3.2,0-5.4-2.5-5.4-5.4c0-4.4,4-5.7,7.5-7l3.9-1.4v-1.2c0-2.7-1.3-3.9-4-3.9c-2.4,0-4.9,1.1-7,3.6v-4.8c1.7-2,4.1-3,7.3-3
			c4.5,0,8,2.3,8,7.3v11.3c0,0.8,0.3,1.1,0.8,1.1c0.4,0,1.3-0.4,2.3-1.2V413.3z M594.1,403.7c-3.7,1.3-7,2.5-7,5.1
			c0,1.8,1.3,3.1,3.1,3.1c1.4,0,2.6-0.7,3.8-1.8V403.7z"/>
		<path fill="#231F20" d="M610,414.6h-4.4v-33.4h4.4V414.6z"/>
		<path fill="#231F20" d="M311.4,435.5c-2.8-2.7-5.6-3.5-7.8-3.5c-3.1,0-5.3,1.6-5.3,4c0,6.4,14.5,6.3,14.5,17c0,5.2-4,9.1-9.4,9.1
			c-3.6,0-6.6-1-9.4-3.1v-6.1c2.4,3.1,5.5,4.9,8.8,4.9c3.7,0,5.4-2.4,5.4-4.2c0-6.9-14.5-7.7-14.5-16.9c0-5.4,4-8.9,10.1-8.9
			c2.5,0,5.1,0.8,7.4,2.4V435.5z"/>
		<path fill="#231F20" d="M322.5,439.6h7v3.9h-7v11.3c0,2.6,1.9,3.3,3.1,3.3c1.6,0,3.2-0.5,5-1.6v4.1c-1.5,0.8-3.9,1.5-5.3,1.5
			c-4.8,0-7.2-2.9-7.2-6.9v-11.6h-3.8V443l8.2-8V439.6z"/>
		<path fill="#231F20" d="M347.7,461.6v-2.8c-1.8,2-4.4,3.2-6.5,3.2c-4.5,0-7.6-3.2-7.6-8.8v-13.7h4.4v14c0,3.1,1.5,4.9,4.5,4.9
			c2,0,3.8-1.1,5.2-3.1v-15.7h4.4v22H347.7z"/>
		<path fill="#231F20" d="M377.2,461.6H368c-6.6,0-10.7-4.5-10.7-11.5c0-6.4,4.6-10.9,11-10.9c1.5,0,2.8,0.2,4.6,0.9v-11.9h4.4
			V461.6z M372.9,443.9c-1.5-0.6-2.6-0.8-4.1-0.8c-4.2,0-7.1,3-7.1,7.6c0,4.1,1.7,7.2,6.7,7.2h4.4V443.9z"/>
		<path fill="#231F20" d="M385.5,435.5c-1.4,0-2.6-1.2-2.6-2.6c0-1.4,1.2-2.6,2.6-2.6c1.4,0,2.6,1.2,2.6,2.6
			C388.1,434.3,387,435.5,385.5,435.5z M387.7,461.6h-4.4v-22h4.4V461.6z"/>
		<path fill="#231F20" d="M412.4,459.4c-2.6,1.8-5,2.6-8.8,2.6c-6.9,0-10.7-5.6-10.7-11.7c0-6.7,4.2-11.2,10.3-11.2
			c5.8,0,9.6,4,9.6,12.1h-15.5c0.7,4.4,3.2,6.6,7.4,6.6c2.6,0,5.1-1,7.7-2.6V459.4z M408.4,448.4c-0.1-3.3-2.1-5.4-5.1-5.4
			c-3.3,0-5.3,2-5.9,5.4H408.4z"/>
		<path fill="#231F20" d="M430.3,445.3c-2.5-1.6-4.8-2.3-6.4-2.3c-1.8,0-2.9,0.8-2.9,2c0,1,1.5,2.2,5.3,4.4c3.6,2.4,5,3.9,5,6.2
			c0,3.9-3.1,6.5-7.3,6.5c-2.7,0-4.8-0.5-7.6-2v-4.7c2.8,2,5.4,2.9,7.2,2.9c1.8-0.1,3.2-0.9,3.2-2.5c0-3-10.3-4.7-10.3-10.6
			c0-3.7,2.8-6,7.3-6c2.1,0,4.2,0.6,6.5,1.8V445.3z"/>
		<path fill="#231F20" d="M479,435.6c-4.1-2.4-7.6-3.5-11.5-3.5c-7.6,0-13.3,5.4-13.3,12.8c0,7.5,5.5,12.7,13.5,12.7
			c3.8,0,7.9-1.3,11.7-3.8v5.2c-3.3,1.7-6.9,2.9-12.1,2.9c-12.5,0-18-9.7-18-16.7c0-10.2,7.7-17.6,18.3-17.6c3.4,0,6.9,0.8,11.5,2.7
			V435.6z"/>
		<path fill="#231F20" d="M503.1,459.4c-2.6,1.8-5,2.6-8.8,2.6c-6.9,0-10.7-5.6-10.7-11.7c0-6.7,4.2-11.2,10.3-11.2
			c5.8,0,9.6,4,9.6,12.1H488c0.7,4.4,3.2,6.6,7.4,6.6c2.7,0,5.1-1,7.7-2.6V459.4z M499.2,448.4c-0.1-3.3-2.1-5.4-5.1-5.4
			c-3.3,0-5.3,2-5.9,5.4H499.2z"/>
		<path fill="#231F20" d="M512.5,442.5L512.5,442.5c1.8-2.1,4.2-3.3,6.7-3.3c4.2,0,7.5,2.8,7.5,8.9v13.6h-4.4V448
			c0-3.2-1.7-5.3-4.3-5.3c-1.9,0-3.4,0.9-5.5,3.2v15.8h-4.4v-22h4.4V442.5z"/>
		<path fill="#231F20" d="M537.8,439.6h7v3.9h-7v11.3c0,2.6,1.9,3.3,3.1,3.3c1.6,0,3.2-0.5,5-1.6v4.1c-1.5,0.8-3.9,1.5-5.3,1.5
			c-4.8,0-7.2-2.9-7.2-6.9v-11.6h-3.8V443l8.2-8V439.6z"/>
		<path fill="#231F20" d="M553.7,439.6v5h0.1c2.2-3.9,4.3-5.5,6.4-5.5c1.8,0,3.4,0.8,5.2,2.5l-2.3,3.8c-1.3-1.3-3-2.2-4.1-2.2
			c-3,0-5.3,3-5.3,6.8v11.5h-4.4v-22H553.7z"/>
		<path fill="#231F20" d="M586.9,459.4c-2.6,1.8-5,2.6-8.8,2.6c-6.9,0-10.7-5.6-10.7-11.7c0-6.7,4.2-11.2,10.3-11.2
			c5.8,0,9.6,4,9.6,12.1h-15.5c0.7,4.4,3.2,6.6,7.4,6.6c2.6,0,5.1-1,7.7-2.6V459.4z M582.9,448.4c-0.1-3.3-2.1-5.4-5.1-5.4
			c-3.3,0-5.3,2-5.9,5.4H582.9z"/>
	</g>
	<g>
		<path fill="#231F20" d="M72,430.3c0,19.8-11.9,32.8-35.9,32.8c-17.1,0-33.7-9.6-33.7-31.7v-50.3H14V429c0,9.1,1.2,12.9,4.9,16.6
			c4.6,4.6,10.4,6.9,17.4,6.9c8.9,0,15.3-2.8,19-6.5c4.1-4.1,5.1-10.1,5.1-17.7v-47.1H72V430.3z"/>
		<path fill="#231F20" d="M91.7,451.7h36.5v10.4H80.1v-80.9h11.6V451.7z"/>
		<path fill="#231F20" d="M175,399c-6.9-6.5-13.5-8.4-19-8.4c-7.5,0-12.8,3.9-12.8,9.6c0,15.5,35,15.3,35,41
			c0,12.7-9.6,21.9-22.6,21.9c-8.8,0-15.9-2.4-22.6-7.5V441c5.9,7.6,13.4,11.7,21.3,11.7c9,0,13.2-5.7,13.2-10.2
			c0-16.7-35-18.6-35-40.8c0-13.2,9.7-21.6,24.5-21.6c6.2,0,12.3,1.9,18,5.7V399z"/>
		<path fill="#231F20" d="M255,399.3c-10-5.8-18.5-8.4-27.9-8.4c-18.5,0-32.2,13.2-32.2,30.9c0,18.1,13.3,30.7,32.7,30.7
			c9.1,0,19.1-3.2,28.2-9.1v12.7c-7.9,4.2-16.6,7.1-29.3,7.1c-30.3,0-43.6-23.4-43.6-40.3c0-24.7,18.6-42.7,44.3-42.7
			c8.3,0,16.7,2,27.7,6.6V399.3z"/>
	</g>
	<rect x="269.5" y="336.2" fill="#E21937" width="14.5" height="126"/>
</g>
</svg>
