<?xml version="1.0" encoding="utf-8"?>
<!-- Generator: Adobe Illustrator 18.0.0, SVG Export Plug-In . SVG Version: 6.00 Build 0)  -->
<!DOCTYPE svg PUBLIC "-//W3C//DTD SVG 1.1//EN" "http://www.w3.org/Graphics/SVG/1.1/DTD/svg11.dtd">
<svg version="1.1" id="Layer_1" xmlns="http://www.w3.org/2000/svg" xmlns:xlink="http://www.w3.org/1999/xlink" x="0px" y="0px"
	 viewBox="1.3 359.2 582.1 123.4" enable-background="new 1.3 359.2 582.1 123.4" xml:space="preserve">
<g id="Layer_2">
	<g>
		<path fill="#231F20" d="M300.3,363.9h-13.6v9.7h13.1v4.1h-13.1v10h14v4.1h-18.6v-32h18.2V363.9z"/>
		<path fill="#231F20" d="M320.8,366.8c-2.7-2.6-5.4-3.4-7.5-3.4c-3,0-5.1,1.5-5.1,3.8c0,6.1,13.9,6,13.9,16.3c0,5-3.8,8.7-9,8.7
			c-3.4,0-6.3-1-9-3v-5.8c2.4,3,5.3,4.7,8.4,4.7c3.5,0,5.2-2.3,5.2-4c0-6.6-13.9-7.4-13.9-16.2c0-5.2,3.8-8.5,9.7-8.5
			c2.4,0,4.9,0.8,7.2,2.3L320.8,366.8L320.8,366.8z"/>
		<path fill="#231F20" d="M335.3,359.8c6.5,0,10.5,3.4,10.5,9c0,3.7-1.9,6.5-5.4,7.9c2.9,1.9,4.7,4.9,7.1,8.9
			c1.3,2.2,2.2,3.3,4.4,6.3h-5.5l-4.2-6.6c-4.2-6.6-6.1-7.3-8.5-7.3h-1.9v13.9h-4.6v-32.1H335.3z M331.8,373.8h3
			c4.9,0,6.3-2.5,6.3-5.2c0-3-1.8-4.8-6.3-4.8h-3V373.8z"/>
		<path fill="#231F20" d="M382.8,366.9c-3.9-2.3-7.3-3.4-11-3.4c-7.3,0-12.7,5.2-12.7,12.3c0,7.2,5.3,12.2,12.9,12.2
			c3.6,0,7.6-1.2,11.2-3.6v5c-3.2,1.6-6.6,2.8-11.6,2.8c-12,0-17.2-9.3-17.2-16c0-9.8,7.4-16.9,17.5-16.9c3.3,0,6.6,0.8,11,2.6
			L382.8,366.9L382.8,366.9z"/>
		<path fill="#231F20" d="M309,423.5c0,7.9-4.7,13-14.3,13c-6.8,0-13.3-3.8-13.3-12.6v-19.9h4.6v19c0,3.6,0.5,5.1,1.9,6.6
			c1.8,1.8,4.1,2.7,6.9,2.7c3.5,0,6-1.1,7.5-2.6c1.6-1.6,2-4,2-7v-18.7h4.6L309,423.5L309,423.5z"/>
		<path fill="#231F20" d="M342.6,436.1h-6.3L320,420.3v15.8h-4.6v-32h4.6v14.7l13.5-14.7h5.7l-14,15.1L342.6,436.1z"/>
		<path fill="#231F20" d="M363.8,432h14.5v4.1h-19.1v-32h4.6V432z"/>
		<path fill="#231F20" d="M403,425.4c0,6.7-4.6,11.2-11.4,11.2c-6.5,0-11.1-4.7-11.1-11.2c0-6,4.8-10.7,11.1-10.7
			C398.2,414.5,403,419.1,403,425.4z M384.7,425.4c0,4.5,2.8,7.4,6.8,7.4c4.4,0,7.2-2.8,7.2-7.4c0-4.1-3-7.1-7.2-7.1
			C387.6,418.4,384.7,421.3,384.7,425.4z"/>
		<path fill="#231F20" d="M411.7,417.8L411.7,417.8c1.7-2,4-3.2,6.4-3.2c4,0,7.2,2.7,7.2,8.5v13h-4.2v-13.1c0-3.1-1.6-5.1-4.1-5.1
			c-1.8,0-3.3,0.9-5.3,3.1v15.1h-4.2v-21.1h4.2V417.8L411.7,417.8z"/>
		<path fill="#231F20" d="M448,418.3h-4.3c1.6,1.6,2.2,2.8,2.2,4.6c0,1.7-1,3.7-2,4.7c-2.8,3-8.5,1.5-8.5,4c0,1.1,2.2,1.9,6.4,2.7
			c4.5,0.9,6.1,3.2,6.1,5.8c0,4.2-3.7,6.7-10,6.7c-5.7,0-9.7-2.7-9.7-6.4c0-3.1,1.6-4.9,5.3-5.8c-1.4-0.9-2.1-1.7-2.1-2.7
			c0-1.3,1.3-2.6,3.4-3v-0.1c-1.5-0.7-2.7-1.5-3.5-2.7c-0.8-1.1-1.1-2.4-1.1-3.9c0-4.5,3.5-7.3,9.2-7.3h8.7V418.3L448,418.3z
			 M436.9,437.1c-2.8,0-4.8,1.3-4.8,3.2c0,2.1,2.1,3.3,5.8,3.3c3.6,0,5.8-1.1,5.8-3.1C443.8,437.8,439.5,437.1,436.9,437.1z
			 M438,418.6c-2.3,0-4.2,1.7-4.2,3.8c0,2.3,1.7,3.8,4.2,3.8c2.3,0,4-1.6,4-3.9C442.1,420.3,440.2,418.6,438,418.6z"/>
		<path fill="#231F20" d="M454.1,411.1c-1.3,0-2.5-1.1-2.5-2.5s1.1-2.5,2.5-2.5s2.5,1.1,2.5,2.5S455.4,411.1,454.1,411.1z
			 M456.2,436.1H452V415h4.2V436.1z"/>
		<path fill="#231F20" d="M467,415h6.7v3.7H467v10.8c0,2.5,1.8,3.2,3,3.2c1.5,0,3.1-0.5,4.7-1.5v3.9c-1.4,0.8-3.7,1.4-5.1,1.4
			c-4.6,0-6.9-2.8-6.9-6.6v-11.1h-3.6v-0.6l7.9-7.7L467,415L467,415z"/>
		<path fill="#231F20" d="M491.2,436.1v-2.7c-1.7,1.9-4.2,3.1-6.2,3.1c-4.3,0-7.3-3.1-7.3-8.4v-13.1h4.2v13.4c0,3,1.4,4.7,4.3,4.7
			c1.9,0,3.6-1.1,5-3v-15h4.2v21.1H491.2z"/>
		<path fill="#231F20" d="M519.5,436.1h-8.9c-6.3,0-10.3-4.3-10.3-11c0-6.1,4.4-10.4,10.5-10.4c1.4,0,2.7,0.2,4.4,0.9v-11.4h4.2
			V436.1z M515.3,419.1c-1.4-0.6-2.5-0.8-3.9-0.8c-4,0-6.8,2.9-6.8,7.3c0,3.9,1.6,6.9,6.4,6.9h4.2L515.3,419.1L515.3,419.1z"/>
		<path fill="#231F20" d="M527.5,411.1c-1.3,0-2.5-1.1-2.5-2.5s1.1-2.5,2.5-2.5c1.3,0,2.5,1.1,2.5,2.5S528.8,411.1,527.5,411.1z
			 M529.6,436.1h-4.2V415h4.2V436.1z"/>
		<path fill="#231F20" d="M539.6,417.8L539.6,417.8c1.7-2,4-3.2,6.4-3.2c4,0,7.2,2.7,7.2,8.5v13H549v-13.1c0-3.1-1.6-5.1-4.1-5.1
			c-1.8,0-3.3,0.9-5.3,3.1v15.1h-4.2v-21.1h4.2L539.6,417.8L539.6,417.8z"/>
		<path fill="#231F20" d="M575.4,434.8c-1.9,1.2-2.7,1.6-4,1.6c-1.8,0-2.8-0.7-3.2-2.2c-1.8,1.4-3.7,2.2-5.7,2.2
			c-3.1,0-5.2-2.4-5.2-5.2c0-4.2,3.8-5.5,7.2-6.7l3.7-1.3v-1.1c0-2.6-1.2-3.7-3.8-3.7c-2.3,0-4.7,1.1-6.7,3.4v-4.6
			c1.6-1.9,3.9-2.9,7-2.9c4.3,0,7.7,2.2,7.7,7v10.8c0,0.8,0.3,1.1,0.8,1.1c0.4,0,1.2-0.4,2.2-1.1L575.4,434.8L575.4,434.8z
			 M568.2,425.6c-3.5,1.2-6.7,2.4-6.7,4.9c0,1.7,1.2,3,3,3c1.3,0,2.5-0.7,3.6-1.7L568.2,425.6L568.2,425.6z"/>
		<path fill="#231F20" d="M583.4,436.1h-4.2v-32h4.2V436.1z"/>
		<path fill="#231F20" d="M297.4,456.1c-2.7-2.6-5.4-3.4-7.5-3.4c-3,0-5.1,1.5-5.1,3.8c0,6.1,13.9,6,13.9,16.3c0,5-3.8,8.7-9,8.7
			c-3.4,0-6.3-1-9-3v-5.8c2.3,3,5.3,4.7,8.4,4.7c3.5,0,5.2-2.3,5.2-4c0-6.6-13.9-7.4-13.9-16.2c0-5.2,3.8-8.5,9.7-8.5
			c2.4,0,4.9,0.8,7.1,2.3v5.1H297.4z"/>
		<path fill="#231F20" d="M308,460h6.7v3.7H308v10.8c0,2.5,1.8,3.2,3,3.2c1.5,0,3.1-0.5,4.8-1.5v3.9c-1.4,0.8-3.7,1.4-5.1,1.4
			c-4.6,0-6.9-2.8-6.9-6.6v-11.1h-3.6v-0.6l7.9-7.7L308,460L308,460z"/>
		<path fill="#231F20" d="M332.1,481.1v-2.7c-1.7,1.9-4.2,3.1-6.2,3.1c-4.3,0-7.3-3.1-7.3-8.4v-13.1h4.2v13.4c0,3,1.4,4.7,4.3,4.7
			c1.9,0,3.6-1.1,5-3v-15h4.2v21.1H332.1z"/>
		<path fill="#231F20" d="M360.4,481.1h-8.8c-6.3,0-10.3-4.3-10.3-11c0-6.1,4.4-10.4,10.5-10.4c1.4,0,2.7,0.2,4.4,0.9v-11.4h4.2
			L360.4,481.1L360.4,481.1z M356.3,464.2c-1.4-0.6-2.5-0.8-3.9-0.8c-4,0-6.8,2.9-6.8,7.3c0,3.9,1.6,6.9,6.4,6.9h4.2L356.3,464.2
			L356.3,464.2z"/>
		<path fill="#231F20" d="M368.4,456.1c-1.3,0-2.5-1.1-2.5-2.5s1.1-2.5,2.5-2.5s2.5,1.1,2.5,2.5S369.8,456.1,368.4,456.1z
			 M370.5,481.1h-4.2V460h4.2V481.1z"/>
		<path fill="#231F20" d="M394.1,479c-2.5,1.7-4.8,2.5-8.4,2.5c-6.6,0-10.3-5.4-10.3-11.2c0-6.4,4-10.7,9.9-10.7
			c5.6,0,9.2,3.8,9.2,11.6h-14.8c0.7,4.2,3.1,6.3,7.1,6.3c2.5,0,4.9-1,7.4-2.5V479z M390.3,468.5c-0.1-3.2-2-5.2-4.9-5.2
			c-3.2,0-5.1,1.9-5.7,5.2H390.3z"/>
		<path fill="#231F20" d="M411.3,465.5c-2.4-1.5-4.6-2.2-6.1-2.2c-1.7,0-2.8,0.8-2.8,1.9c0,1,1.4,2.1,5.1,4.2
			c3.4,2.3,4.8,3.7,4.8,5.9c0,3.7-3,6.2-7,6.2c-2.6,0-4.6-0.5-7.3-1.9v-4.5c2.7,1.9,5.2,2.8,6.9,2.8c1.7-0.1,3.1-0.9,3.1-2.4
			c0-2.9-9.9-4.5-9.9-10.2c0-3.5,2.7-5.7,7-5.7c2,0,4,0.6,6.2,1.7L411.3,465.5L411.3,465.5z"/>
		<path fill="#231F20" d="M457.9,456.2c-3.9-2.3-7.3-3.4-11-3.4c-7.3,0-12.7,5.2-12.7,12.3c0,7.2,5.3,12.2,12.9,12.2
			c3.6,0,7.6-1.2,11.2-3.6v5c-3.2,1.6-6.6,2.8-11.6,2.8c-12,0-17.2-9.3-17.2-16c0-9.8,7.4-16.9,17.5-16.9c3.3,0,6.6,0.8,11,2.6
			L457.9,456.2L457.9,456.2z"/>
		<path fill="#231F20" d="M481,479c-2.5,1.7-4.8,2.5-8.4,2.5c-6.6,0-10.3-5.4-10.3-11.2c0-6.4,4-10.7,9.9-10.7
			c5.6,0,9.2,3.8,9.2,11.6h-14.8c0.7,4.2,3.1,6.3,7.1,6.3c2.6,0,4.9-1,7.4-2.5V479z M477.3,468.5c-0.1-3.2-2-5.2-4.9-5.2
			c-3.2,0-5.1,1.9-5.7,5.2H477.3z"/>
		<path fill="#231F20" d="M490,462.8L490,462.8c1.7-2,4-3.2,6.4-3.2c4,0,7.2,2.7,7.2,8.5v13h-4.2v-13.1c0-3.1-1.6-5.1-4.1-5.1
			c-1.8,0-3.3,0.9-5.3,3.1v15.1h-4.2v-21.1h4.2V462.8z"/>
		<path fill="#231F20" d="M514.3,460h6.7v3.7h-6.7v10.8c0,2.5,1.8,3.2,3,3.2c1.5,0,3.1-0.5,4.8-1.5v3.9c-1.4,0.8-3.7,1.4-5.1,1.4
			c-4.6,0-6.9-2.8-6.9-6.6v-11.1h-3.6v-0.6l7.9-7.7V460z"/>
		<path fill="#231F20" d="M529.5,460v4.8h0.1c2.1-3.7,4.1-5.3,6.1-5.3c1.7,0,3.3,0.8,5,2.4l-2.2,3.6c-1.2-1.2-2.9-2.1-3.9-2.1
			c-2.9,0-5.1,2.9-5.1,6.5v11h-4.2v-21.1L529.5,460L529.5,460z"/>
		<path fill="#231F20" d="M561.3,479c-2.5,1.7-4.8,2.5-8.4,2.5c-6.6,0-10.3-5.4-10.3-11.2c0-6.4,4-10.7,9.9-10.7
			c5.6,0,9.2,3.8,9.2,11.6h-14.8c0.7,4.2,3.1,6.3,7.1,6.3c2.5,0,4.9-1,7.4-2.5V479z M557.5,468.5c-0.1-3.2-2-5.2-4.9-5.2
			c-3.2,0-5.1,1.9-5.7,5.2H557.5z"/>
	</g>
	<g>
		<path fill="#231F20" d="M68,451.1c0,19-11.4,31.4-34.4,31.4c-16.4,0-32.3-9.2-32.3-30.4V404h11.1v45.9c0,8.7,1.1,12.4,4.7,15.9
			c4.4,4.4,10,6.6,16.7,6.6c8.5,0,14.7-2.7,18.2-6.2c3.9-3.9,4.9-9.7,4.9-17v-45.1H68V451.1z"/>
		<path fill="#231F20" d="M86.9,471.6h35v10H75.8v-77.5h11.1V471.6z"/>
		<path fill="#231F20" d="M166.7,421.1c-6.6-6.2-12.9-8-18.2-8c-7.2,0-12.3,3.7-12.3,9.2c0,14.8,33.5,14.7,33.5,39.3
			c0,12.2-9.2,21-21.7,21c-8.4,0-15.2-2.3-21.7-7.2v-14c5.7,7.3,12.8,11.2,20.4,11.2c8.6,0,12.6-5.5,12.6-9.8
			c0-16-33.5-17.8-33.5-39.1c0-12.6,9.3-20.7,23.5-20.7c5.9,0,11.8,1.8,17.2,5.5L166.7,421.1L166.7,421.1z"/>
		<path fill="#231F20" d="M243.3,421.4c-9.6-5.6-17.7-8-26.7-8c-17.7,0-30.8,12.6-30.8,29.6c0,17.3,12.7,29.4,31.3,29.4
			c8.7,0,18.3-3.1,27-8.7v12.2c-7.6,4-15.9,6.8-28.1,6.8c-29,0-41.8-22.4-41.8-38.6c0-23.7,17.8-40.9,42.4-40.9c8,0,16,1.9,26.5,6.3
			L243.3,421.4L243.3,421.4z"/>
	</g>
	<rect x="257.2" y="361" fill="#E21937" width="13.9" height="120.7"/>
</g>
</svg>
